<?xml version="1.0" encoding="utf-8"?>
<!-- Generator: Adobe Illustrator 19.2.1, SVG Export Plug-In . SVG Version: 6.00 Build 0)  -->
<svg version="1.1" id="Layer_1" xmlns="http://www.w3.org/2000/svg" xmlns:xlink="http://www.w3.org/1999/xlink" x="0px" y="0px"
	 viewBox="0 0 502 560" style="enable-background:new 0 0 502 560;" xml:space="preserve">
<style type="text/css">
	.st0{fill:#40C4FF;}
	.st1{fill:#72B5E8;}
	.st2{fill:#A8CFF0;}
	.st3{fill:#D1EBFF;}
	.st4{fill:#FFFFFF;}
	.st5{fill:#EB4680;}
	.st6{fill:#D62D69;}
	.st7{opacity:0.7;fill:#FFFFFF;}
	.st8{fill:#3F92D1;}
	.st9{fill:#4F9FDB;}
	.st10{fill:#03336E;}
	.st11{fill:#001A46;}
	.st12{fill:#FF4081;}
	.st13{fill:#0FBAB8;}
	.st14{fill:#2672AB;}
	.st15{fill:#084C94;}
	.st16{fill:#0BA19F;}
	.st17{fill:#B08100;}
	.st18{fill:#3ECFCD;}
	.st19{fill:#F76195;}
	.st20{opacity:0.2;fill:#92B4D1;}
	.st21{fill:#F5F5F5;}
	.st22{fill:#E7E7E7;}
	.st23{fill:#375A64;}
	.st24{fill:#00DFBF;}
	.st25{opacity:0.6;fill:#40C4FF;}
	.st26{opacity:0.5;fill:#40C4FF;}
	.st27{opacity:0.4;fill:#40C4FF;}
	.st28{opacity:0.15;fill:#40C4FF;}
	.st29{fill:#1A2E35;}
	.st30{fill:#E1E1E1;}
	.st31{fill:#ECECEC;}
	.st32{fill:#403181;}
	.st33{opacity:0.5;fill:#403181;}
	.st34{opacity:0.5;}
	.st35{opacity:0.9;fill:#1A2E35;}
	.st36{opacity:0.6;fill:#403181;}
	.st37{opacity:0.6;}
	.st38{opacity:0.8;fill:#403181;}
	.st39{opacity:0.8;}
	.st40{opacity:0.9;}
	.st41{opacity:0.6;fill:#00DFBF;}
	.st42{opacity:0.7;}
	.st43{opacity:0.3;}
	.st44{opacity:0.25;}
	.st45{opacity:0.1;fill:#40C4FF;}
	.st46{fill:#FFAAA8;}
	.st47{fill:#FAFAFA;}
	.st48{opacity:0.4;}
	.st49{fill:#FF9090;}
	.st50{fill:none;stroke:#1A2E35;stroke-width:1.207;stroke-miterlimit:10;}
	.st51{fill:none;stroke:#1A2E35;stroke-width:1.027;stroke-miterlimit:10;}
	.st52{opacity:0.75;fill:#403181;}
	.st53{opacity:0.1;fill:#00DFBF;}
	.st54{opacity:0.3;fill:#40C4FF;}
</style>
<g>
	<path id="Floor_10_" class="st21" d="M428.2,294.3c97.9,54.2,97.9,142,0,196.2c-97.9,54.2-256.6,54.2-354.4,0
		c-97.9-54.2-97.9-142,0-196.2C171.7,240.2,330.3,240.2,428.2,294.3z"/>
	<path id="Shadow_10_" class="st22" d="M476.6,371l-139.7,80.7c-1,0.6-2.7,0.6-3.8,0L131.7,335.4c-1-0.6-1-1.6,0-2.2l139.7-80.7
		c1-0.6,2.7-0.6,3.8,0l201.4,116.3C477.6,369.4,477.6,370.4,476.6,371z"/>
	<path id="Shadow_9_" class="st22" d="M211.3,482.6c32.8-18.9,32.8-49.6,0-68.5c-32.8-18.9-85.9-18.9-118.7,0
		c-32.8,18.9-32.8,49.6,0,68.5C125.4,501.6,178.5,501.6,211.3,482.6z"/>
	<path id="Shadow_8_" class="st22" d="M300.8,419.2c25.8-14.9,25.8-39,0-53.9c-25.8-14.9-67.6-14.9-93.4,0
		c-25.8,14.9-25.8,39,0,53.9C233.2,434.1,275,434.1,300.8,419.2z"/>
	<path id="Shadow_5_" class="st22" d="M430.3,460.2c16.2-9.3,16.2-24.5,0-33.9c-16.2-9.3-42.4-9.3-58.6,0
		c-16.2,9.3-16.2,24.5,0,33.9C387.9,469.6,414.2,469.6,430.3,460.2z"/>
	<g id="Desk">
		<g id="Table_2_">
			<g id="XMLID_3957_">
				<path id="XMLID_3960_" class="st12" d="M339.9,307.5v124c0,0.8-0.6,1.8-1.3,2.2l-2.7,1.5c-0.7,0.4-1.8,0.4-2.5,0l-2.7-1.5
					c-0.7-0.4-1.3-1.4-1.3-2.2v-124c0-0.8,0.6-1.1,1.3-0.7l2.7,1.5c0.7,0.4,1.8,0.4,2.5,0l2.7-1.5
					C339.4,306.4,339.9,306.7,339.9,307.5z"/>
				<path id="XMLID_3959_" class="st23" d="M333.5,435.2l-2.7-1.5c-0.7-0.4-1.3-1.4-1.3-2.2v-124c0-0.8,0.6-1.1,1.3-0.7l2.7,1.5
					c0.7,0.4,1.3,1.4,1.3,2.2l0,124C334.8,435.3,334.2,435.6,333.5,435.2z"/>
			</g>
			<g id="XMLID_3954_">
				<path id="XMLID_3956_" class="st12" d="M453.4,242v124c0,0.8-0.6,1.8-1.3,2.2l-2.7,1.5c-0.7,0.4-1.8,0.4-2.5,0l-2.7-1.5
					c-0.7-0.4-1.3-1.4-1.3-2.2V242c0-0.8,0.6-1.1,1.3-0.7l2.7,1.5c0.7,0.4,1.8,0.4,2.5,0l2.7-1.5C452.8,240.9,453.4,241.2,453.4,242
					z"/>
				<path id="XMLID_3955_" class="st23" d="M447,369.7l-2.7-1.5c-0.7-0.4-1.3-1.4-1.3-2.2V242c0-0.8,0.6-1.1,1.3-0.7l2.7,1.5
					c0.7,0.4,1.3,1.4,1.3,2.2l0,124C448.2,369.8,447.7,370.1,447,369.7z"/>
			</g>
			<g id="XMLID_3951_">
				<path id="XMLID_3953_" class="st12" d="M187.1,219.3v124c0,0.8-0.6,1.8-1.3,2.2l-2.7,1.5c-0.7,0.4-1.8,0.4-2.5,0l-2.7-1.5
					c-0.7-0.4-1.3-1.4-1.3-2.2v-124c0-0.8,0.6-1.1,1.3-0.7l2.7,1.5c0.7,0.4,1.8,0.4,2.5,0l2.7-1.5
					C186.6,218.2,187.1,218.5,187.1,219.3z"/>
				<path id="XMLID_3952_" class="st23" d="M180.7,347l-2.7-1.5c-0.7-0.4-1.3-1.4-1.3-2.2v-124c0-0.8,0.6-1.1,1.3-0.7l2.7,1.5
					c0.7,0.4,1.3,1.4,1.3,2.2l0,124C182,347.1,181.4,347.4,180.7,347z"/>
			</g>
			<g id="XMLID_3938_">
				<g id="XMLID_3949_">
					<path id="XMLID_3950_" class="st24" d="M478.1,250.8v-0.9c0-1.5-1-3.2-2.3-3.9L275.7,130.5c-1.3-0.7-3.3-0.7-4.6,0l-123.1,71.1
						c-1.3,0.7-2.3,2.5-2.3,3.9v0.9c0,1.5,1,3.2,2.3,3.9l200.1,115.4c1.3,0.7,3.3,0.7,4.6,0l123.1-71.1
						C477.1,254,478.1,252.2,478.1,250.8z"/>
					<path id="XMLID_339_" class="st25" d="M478.1,250.8v-0.9c0-1.5-1-3.2-2.3-3.9L275.7,130.5c-1.3-0.7-3.3-0.7-4.6,0l-123.1,71.1
						c-1.3,0.7-2.3,2.5-2.3,3.9v0.9c0,1.5,1,3.2,2.3,3.9l200.1,115.4c1.3,0.7,3.3,0.7,4.6,0l123.1-71.1
						C477.1,254,478.1,252.2,478.1,250.8z"/>
				</g>
				<g id="XMLID_3947_">
					<path id="XMLID_3948_" class="st24" d="M350.4,320.2v6.2c0.8,0,1.6-0.2,2.3-0.5l123.1-71.1c1.3-0.7,2.3-2.5,2.3-3.9v-0.9
						c0-1.3-0.8-2.8-1.9-3.6c0.8,0.7,0.7,1.7-0.4,2.3l-123.1,71.1C352.1,320,351.3,320.2,350.4,320.2z"/>
					<path id="XMLID_3946_" class="st26" d="M350.4,320.2v6.2c0.8,0,1.6-0.2,2.3-0.5l123.1-71.1c1.3-0.7,2.3-2.5,2.3-3.9v-0.9
						c0-1.3-0.8-2.8-1.9-3.6c0.8,0.7,0.7,1.7-0.4,2.3l-123.1,71.1C352.1,320,351.3,320.2,350.4,320.2z"/>
				</g>
				<g>
					<path id="XMLID_3942_" class="st24" d="M475.8,248.6l-123.1,71.1c-1.3,0.7-3.3,0.7-4.6,0L148.1,204.3c-1.3-0.7-1.3-1.9,0-2.6
						l123.1-71.1c1.3-0.7,3.3-0.7,4.6,0l200.1,115.4C477.1,246.7,477.1,247.8,475.8,248.6z"/>
					<path id="XMLID_337_" class="st27" d="M475.8,248.6l-123.1,71.1c-1.3,0.7-3.3,0.7-4.6,0L148.1,204.3c-1.3-0.7-1.3-1.9,0-2.6
						l123.1-71.1c1.3-0.7,3.3-0.7,4.6,0l200.1,115.4C477.1,246.7,477.1,247.8,475.8,248.6z"/>
				</g>
			</g>
		</g>
		<g id="Keyboard_1_">
			<path id="Shadow_30_" class="st28" d="M335.3,247l-29.2,16.9c-0.9,0.5-2.4,0.5-3.3,0l-86.2-49.7c-0.9-0.5-0.9-1.4,0-1.9
				l29.2-16.9c0.9-0.5,2.4-0.5,3.3,0l86.2,49.7C336.2,245.7,336.2,246.5,335.3,247z"/>
			<g id="Keyboard_4_">
				<g id="XMLID_3931_">
					<path id="XMLID_3936_" class="st29" d="M218.5,209.4c0-0.3,0.2-0.7,0.7-0.9l27.4-15.8c0.9-0.5,2.4-0.5,3.3,0l83.6,48.3
						c0.5,0.3,0.7,0.6,0.7,0.9c0,0.3,0,2.5,0,2.9c0,0.3-0.2,0.7-0.7,0.9L306,261.5c-0.9,0.5-2.4,0.5-3.3,0l-83.6-48.3
						c-0.4-0.3-0.7-0.6-0.7-0.9C218.5,212,218.5,209.7,218.5,209.4z"/>
					<path id="XMLID_3935_" class="st12" d="M306,258.6l27.4-15.7c0.9-0.5,0.9-1.4,0-1.9l-83.6-48.3c-0.9-0.5-2.4-0.5-3.3,0
						l-27.4,15.8c-0.9,0.5-0.9,1.4,0,1.9l83.6,48.3C303.7,259.1,305.1,259.1,306,258.6z"/>
					<path id="XMLID_3933_" class="st29" d="M304.5,259v2.9c0.6,0,1.1-0.1,1.5-0.4l27.4-15.8c0.5-0.3,0.7-0.6,0.7-0.9v-2.9
						c0,0.3-0.2,0.7-0.7,0.9L306,258.6C305.6,258.8,305.1,258.9,304.5,259z"/>
				</g>
				<path id="XMLID_3768_" class="st24" d="M223.6,209.6C223.6,209.5,223.6,209.5,223.6,209.6l2.7-1.6l3.7,2.1l-2.7,1.6L223.6,209.6
					L223.6,209.6z M227.8,207.1C227.8,207.1,227.8,207.1,227.8,207.1l2.7-1.6l2.9,1.7l-2.7,1.6L227.8,207.1L227.8,207.1z
					 M228.7,212.5C228.7,212.5,228.7,212.5,228.7,212.5l2.7-1.6l2.9,1.7l-2.7,1.6L228.7,212.5L228.7,212.5z M232,204.7
					C232,204.6,232.1,204.6,232,204.7l2.7-1.6l4.7,2.7l-2.7,1.6L232,204.7L232,204.7z M232.2,209.6
					C232.2,209.6,232.2,209.6,232.2,209.6l2.7-1.6l2.3,1.3l-2.7,1.6L232.2,209.6L232.2,209.6z M233,215C233,215,233.1,215,233,215
					l2.7-1.6l2.9,1.7l-2.7,1.6L233,215L233,215z M235.9,211.8C235.9,211.8,235.9,211.8,235.9,211.8l2.7-1.6l2.3,1.3l-2.7,1.6
					L235.9,211.8L235.9,211.8z M236.3,202.2C236.3,202.2,236.3,202.2,236.3,202.2l2.7-1.6l3.7,2.1l-2.7,1.6L236.3,202.2L236.3,202.2
					z M237.4,217.6C237.4,217.5,237.4,217.5,237.4,217.6l2.7-1.6L261,228l-2.7,1.6L237.4,217.6L237.4,217.6z M238.2,208.2
					C238.2,208.2,238.2,208.2,238.2,208.2l2.7-1.6l2.3,1.3l-2.7,1.6L238.2,208.2L238.2,208.2z M239.7,214
					C239.7,213.9,239.7,213.9,239.7,214l2.7-1.6l2.3,1.3l-2.7,1.6L239.7,214L239.7,214z M240.5,199.8
					C240.5,199.7,240.6,199.7,240.5,199.8l2.7-1.6l2.3,1.3l-2.7,1.6L240.5,199.8L240.5,199.8z M241.4,205.2
					C241.4,205.2,241.4,205.1,241.4,205.2l2.7-1.6l2.3,1.3l-2.7,1.6L241.4,205.2L241.4,205.2z M241.9,210.4
					C241.9,210.3,241.9,210.3,241.9,210.4l2.7-1.6l2.3,1.3l-2.7,1.6L241.9,210.4L241.9,210.4z M243.4,216.1
					C243.4,216.1,243.4,216.1,243.4,216.1l2.7-1.6l2.3,1.3l-2.7,1.6L243.4,216.1L243.4,216.1z M244.3,201.9
					C244.3,201.9,244.3,201.9,244.3,201.9l2.7-1.6l2.3,1.3l-2.7,1.6L244.3,201.9L244.3,201.9z M245.2,207.3
					C245.2,207.3,245.2,207.3,245.2,207.3l2.7-1.6l2.3,1.3l-2.7,1.6L245.2,207.3L245.2,207.3z M245.7,212.5
					C245.7,212.5,245.7,212.5,245.7,212.5l2.7-1.6l2.3,1.3l-2.7,1.6L245.7,212.5L245.7,212.5z M245.7,196.8
					C245.7,196.8,245.7,196.8,245.7,196.8l2.7-1.6l2.9,1.7l-2.7,1.6L245.7,196.8L245.7,196.8z M247.2,218.3
					C247.2,218.3,247.2,218.3,247.2,218.3l2.7-1.6l2.3,1.3l-2.7,1.6L247.2,218.3L247.2,218.3z M248.1,204.1
					C248.1,204.1,248.1,204.1,248.1,204.1l2.7-1.6l2.3,1.3l-2.7,1.6L248.1,204.1L248.1,204.1z M248.9,209.5
					C248.9,209.5,249,209.5,248.9,209.5l2.7-1.6l2.3,1.3l-2.7,1.6L248.9,209.5L248.9,209.5z M249.4,214.7
					C249.4,214.7,249.5,214.7,249.4,214.7l2.7-1.6l2.3,1.3l-2.7,1.6L249.4,214.7L249.4,214.7z M250.9,220.5
					C250.9,220.4,250.9,220.4,250.9,220.5l2.7-1.6l2.3,1.3l-2.7,1.6L250.9,220.5L250.9,220.5z M251.7,200.2
					C251.7,200.2,251.7,200.2,251.7,200.2l2.7-1.6l2.3,1.3l-2.7,1.6L251.7,200.2L251.7,200.2z M251.8,206.3
					C251.8,206.2,251.8,206.2,251.8,206.3l2.7-1.6l2.3,1.3l-2.7,1.6L251.8,206.3L251.8,206.3z M252.7,211.7
					C252.7,211.7,252.7,211.7,252.7,211.7l2.7-1.6l2.3,1.3L255,213L252.7,211.7L252.7,211.7z M253.2,216.9
					C253.2,216.9,253.2,216.8,253.2,216.9l2.7-1.6l2.3,1.3l-2.7,1.6L253.2,216.9L253.2,216.9z M254.7,222.6
					C254.7,222.6,254.7,222.6,254.7,222.6l2.7-1.6l2.3,1.3L257,224L254.7,222.6L254.7,222.6z M255.4,202.4
					C255.4,202.4,255.4,202.4,255.4,202.4l2.7-1.6l2.3,1.3l-2.7,1.6L255.4,202.4L255.4,202.4z M255.6,208.4
					C255.6,208.4,255.6,208.4,255.6,208.4l2.7-1.6l2.3,1.3l-2.7,1.6L255.6,208.4L255.6,208.4z M256.5,213.9
					C256.5,213.8,256.5,213.8,256.5,213.9l2.7-1.6l2.3,1.3l-2.7,1.6L256.5,213.9L256.5,213.9z M257,219C257,219,257,219,257,219
					l2.7-1.6l2.3,1.3l-2.7,1.6L257,219L257,219z M258.4,224.8C258.4,224.8,258.5,224.8,258.4,224.8l2.7-1.6l2.3,1.3l-2.7,1.6
					L258.4,224.8L258.4,224.8z M259.2,204.6C259.2,204.6,259.2,204.5,259.2,204.6l2.7-1.6l2.3,1.3l-2.7,1.6L259.2,204.6L259.2,204.6
					z M259.3,210.6C259.3,210.6,259.3,210.6,259.3,210.6l2.7-1.6l2.3,1.3l-2.7,1.6L259.3,210.6L259.3,210.6z M259.7,230.4
					C259.7,230.4,259.7,230.4,259.7,230.4l2.7-1.6l2.9,1.7l-2.7,1.6L259.7,230.4L259.7,230.4z M260.2,216
					C260.2,216,260.2,216,260.2,216l2.7-1.6l2.3,1.3l-2.7,1.6L260.2,216L260.2,216z M260.7,221.2
					C260.7,221.2,260.7,221.2,260.7,221.2l2.7-1.6l2.3,1.3l-2.7,1.6L260.7,221.2L260.7,221.2z M262.2,227
					C262.2,226.9,262.2,226.9,262.2,227l2.7-1.6l2.3,1.3l-2.7,1.6L262.2,227L262.2,227z M262.9,206.7
					C262.9,206.7,263,206.7,262.9,206.7l2.7-1.6l2.3,1.3l-2.7,1.6L262.9,206.7L262.9,206.7z M263.1,212.8
					C263.1,212.8,263.1,212.7,263.1,212.8l2.7-1.6l2.3,1.3l-2.7,1.6L263.1,212.8L263.1,212.8z M264,218.2
					C264,218.2,264,218.2,264,218.2l2.7-1.6l2.3,1.3l-2.7,1.6L264,218.2L264,218.2z M264.1,233C264.1,232.9,264.1,232.9,264.1,233
					l2.7-1.6l2.9,1.7l-2.7,1.6L264.1,233L264.1,233z M264.5,223.4C264.5,223.4,264.5,223.3,264.5,223.4l2.7-1.6l2.3,1.3l-2.7,1.6
					L264.5,223.4L264.5,223.4z M266,229.1C266,229.1,266,229.1,266,229.1l2.7-1.6l2.3,1.3l-2.7,1.6L266,229.1L266,229.1z
					 M266.8,214.9C266.8,214.9,266.8,214.9,266.8,214.9l2.7-1.6l2.3,1.3l-2.7,1.6L266.8,214.9L266.8,214.9z M267.7,220.4
					C267.7,220.3,267.7,220.3,267.7,220.4l2.7-1.6l2.3,1.3l-2.7,1.6L267.7,220.4L267.7,220.4z M268.2,225.5
					C268.2,225.5,268.2,225.5,268.2,225.5l2.7-1.6l2.3,1.3l-2.7,1.6L268.2,225.5L268.2,225.5z M268.3,209.9
					C268.3,209.8,268.3,209.8,268.3,209.9l2.7-1.6l2.3,1.3l-2.7,1.6L268.3,209.9L268.3,209.9z M268.4,235.5
					C268.4,235.4,268.4,235.4,268.4,235.5l2.7-1.6l2.9,1.7l-2.7,1.6L268.4,235.5L268.4,235.5z M269.7,231.3
					C269.7,231.3,269.7,231.3,269.7,231.3l2.7-1.6l2.3,1.3l-2.7,1.6L269.7,231.3L269.7,231.3z M270.6,217.1
					C270.6,217.1,270.6,217.1,270.6,217.1l2.7-1.6l2.3,1.3l-2.7,1.6L270.6,217.1L270.6,217.1z M271.5,222.5
					C271.5,222.5,271.5,222.5,271.5,222.5l2.7-1.6l2.3,1.3l-2.7,1.6L271.5,222.5L271.5,222.5z M272,227.7
					C272,227.7,272,227.7,272,227.7l2.7-1.6l2.3,1.3l-2.7,1.6L272,227.7L272,227.7z M272.1,212C272.1,212,272.1,212,272.1,212
					l2.7-1.6l2.3,1.3l-2.7,1.6L272.1,212L272.1,212z M272.8,238C272.8,238,272.8,237.9,272.8,238l2.7-1.6l3.7,2.1l-2.7,1.6
					L272.8,238L272.8,238z M273.5,233.5C273.5,233.5,273.5,233.4,273.5,233.5l2.7-1.6l7.2,4.2l-2.7,1.6L273.5,233.5L273.5,233.5z
					 M274.3,219.3C274.3,219.3,274.4,219.2,274.3,219.3l2.7-1.6l2.3,1.3l-2.7,1.6L274.3,219.3L274.3,219.3z M275.2,224.7
					C275.2,224.7,275.2,224.7,275.2,224.7l2.7-1.6l2.3,1.3l-2.7,1.6L275.2,224.7L275.2,224.7z M275.7,229.9
					C275.7,229.9,275.7,229.9,275.7,229.9l2.7-1.6l2.3,1.3l-2.7,1.6L275.7,229.9L275.7,229.9z M275.8,214.2
					C275.8,214.2,275.9,214.2,275.8,214.2l2.7-1.6l2.3,1.3l-2.7,1.6L275.8,214.2L275.8,214.2z M278.1,221.4
					C278.1,221.4,278.1,221.4,278.1,221.4l2.7-1.6l2.3,1.3l-2.7,1.6L278.1,221.4L278.1,221.4z M278.7,241.4
					C278.7,241.4,278.7,241.4,278.7,241.4l2.7-1.6l2.3,1.3l-2.7,1.6L278.7,241.4L278.7,241.4z M279,226.9
					C279,226.8,279,226.8,279,226.9l2.7-1.6l2.3,1.3l-2.7,1.6L279,226.9L279,226.9z M279.5,232C279.5,232,279.5,232,279.5,232
					l2.7-1.6l2.1,1.2c0.1,0.1,0.4,0.1,0.7,0.1c0.3,0,0.5-0.1,0.7-0.1l3.6-2.1l2.7,1.6l-7,4.1L279.5,232L279.5,232z M279.6,216.4
					C279.6,216.3,279.6,216.3,279.6,216.4l2.7-1.6l2.3,1.3l-2.7,1.6L279.6,216.4L279.6,216.4z M281.9,223.6
					C281.9,223.6,281.9,223.6,281.9,223.6l2.7-1.6l2.3,1.3l-2.7,1.6L281.9,223.6L281.9,223.6z M282.5,243.6
					C282.5,243.6,282.5,243.5,282.5,243.6l2.7-1.6l2.3,1.3l-2.7,1.6L282.5,243.6L282.5,243.6z M282.7,229
					C282.7,229,282.8,229,282.7,229l2.7-1.6l2.3,1.3l-2.7,1.6L282.7,229L282.7,229z M285,219.5C285,219.5,285,219.4,285,219.5
					l2.7-1.6l2.3,1.3l-2.7,1.6L285,219.5L285,219.5z M285.6,225.8C285.6,225.8,285.6,225.7,285.6,225.8l2.7-1.6l2.3,1.3l-2.7,1.6
					L285.6,225.8L285.6,225.8z M286.2,245.7C286.2,245.7,286.2,245.7,286.2,245.7l2.7-1.6l2.3,1.3l-2.7,1.6L286.2,245.7L286.2,245.7
					z M286.7,241.1C286.7,241.1,286.7,241.1,286.7,241.1l2.7-1.6l2.3,1.3l-2.7,1.6L286.7,241.1L286.7,241.1z M288.7,221.6
					C288.7,221.6,288.8,221.6,288.7,221.6l2.7-1.6l2.3,1.3L291,223L288.7,221.6L288.7,221.6z M289.4,227.9
					C289.4,227.9,289.4,227.9,289.4,227.9l2.7-1.6l4.1,2.4l-2.7,1.6L289.4,227.9L289.4,227.9z M290.8,248.4
					C290.8,248.3,290.8,248.3,290.8,248.4l2.7-1.6l6.1,3.5l-2.7,1.6L290.8,248.4L290.8,248.4z M291.4,234
					C291.4,234,291.5,234,291.4,234l2.7-1.6l2.3,1.3l-2.7,1.6L291.4,234L291.4,234z M292.5,223.8
					C292.5,223.8,292.5,223.8,292.5,223.8l2.7-1.6l2.3,1.3l-2.7,1.6L292.5,223.8L292.5,223.8z M295,245.9
					C295,245.9,295,245.9,295,245.9l2.7-1.6l2.3,1.3l-2.7,1.6L295,245.9L295,245.9z M295.2,236.2
					C295.2,236.2,295.2,236.2,295.2,236.2l2.7-1.6l2.3,1.3l-2.7,1.6L295.2,236.2L295.2,236.2z M295.7,231.6
					C295.7,231.6,295.7,231.6,295.7,231.6l2.7-1.6l2.3,1.3l-2.7,1.6L295.7,231.6L295.7,231.6z M296.3,226
					C296.3,226,296.3,225.9,296.3,226l2.7-1.6l2.3,1.3l-2.7,1.6L296.3,226L296.3,226z M298.3,252.7
					C298.3,252.7,298.3,252.7,298.3,252.7l2.7-1.6l2.3,1.3l-2.7,1.6L298.3,252.7L298.3,252.7z M298.8,248.1
					C298.8,248.1,298.8,248,298.8,248.1l2.7-1.6l2.3,1.3l-2.7,1.6L298.8,248.1L298.8,248.1z M299,238.4
					C299,238.4,299,238.4,299,238.4l2.7-1.6l2.3,1.3l-2.7,1.6L299,238.4L299,238.4z M299.3,243.5
					C299.3,243.4,299.3,243.4,299.3,243.5l2.7-1.6l2.3,1.3l-2.7,1.6L299.3,243.5L299.3,243.5z M299.4,233.8
					C299.4,233.7,299.5,233.7,299.4,233.8l2.7-1.6l2.3,1.3l-2.7,1.6L299.4,233.8L299.4,233.8z M300.8,228.6
					C300.8,228.6,300.9,228.6,300.8,228.6l2.7-1.6l2.3,1.3l-2.7,1.6L300.8,228.6L300.8,228.6z M302,254.9
					C302,254.9,302,254.8,302,254.9l7-4.1l2.3,1.3l-7,4.1L302,254.9L302,254.9z M302.5,250.2C302.5,250.2,302.5,250.2,302.5,250.2
					l2.7-1.6l2.3,1.3l-2.7,1.6L302.5,250.2L302.5,250.2z M303,245.6C303,245.6,303,245.6,303,245.6l2.7-1.6l2.3,1.3l-2.7,1.6
					L303,245.6L303,245.6z M303.2,235.9C303.2,235.9,303.2,235.9,303.2,235.9l2.7-1.6l2.3,1.3l-2.7,1.6L303.2,235.9L303.2,235.9z
					 M303.5,241C303.5,241,303.5,241,303.5,241l2.7-1.6l2.3,1.3l-2.7,1.6L303.5,241L303.5,241z M304.6,230.8
					C304.6,230.8,304.6,230.8,304.6,230.8l2.7-1.6l2.3,1.3l-2.7,1.6L304.6,230.8L304.6,230.8z M306.8,247.8
					C306.8,247.8,306.8,247.8,306.8,247.8l2.7-1.6l2.3,1.3l-2.7,1.6L306.8,247.8L306.8,247.8z M307.3,243.2
					C307.3,243.2,307.3,243.1,307.3,243.2l2.7-1.6l2.3,1.3l-2.7,1.6L307.3,243.2L307.3,243.2z M307.7,238.6
					C307.7,238.5,307.8,238.5,307.7,238.6l2.7-1.6l2.3,1.3l-2.7,1.6L307.7,238.6L307.7,238.6z M308.4,233
					C308.4,232.9,308.4,232.9,308.4,233l2.7-1.6l2.3,1.3l-2.7,1.6L308.4,233L308.4,233z M310.5,250
					C310.5,249.9,310.5,249.9,310.5,250l7-4.1l2.3,1.3l-7,4.1L310.5,250L310.5,250z M311,245.3C311,245.3,311,245.3,311,245.3
					l2.7-1.6l2.3,1.3l-2.7,1.6L311,245.3L311,245.3z M311.5,240.7C311.5,240.7,311.5,240.7,311.5,240.7l2.7-1.6l2.3,1.3l-2.7,1.6
					L311.5,240.7L311.5,240.7z M314,235C314,234.9,314,234.9,314,235l1.2-0.7l2.3,1.3l-1.2,0.7L314,235L314,235z M315.3,242.9
					C315.3,242.9,315.3,242.9,315.3,242.9l2.7-1.6l2.3,1.3l-2.7,1.6L315.3,242.9L315.3,242.9z M317.7,237.1
					C317.7,237.1,317.8,237.1,317.7,237.1l1.2-0.7l2.3,1.3l-1.2,0.7L317.7,237.1L317.7,237.1z M319,245.1C319,245,319,245,319,245.1
					l2.7-1.6l2.3,1.3l-2.7,1.6L319,245.1L319,245.1z M321.5,239.3C321.5,239.3,321.5,239.3,321.5,239.3l1.2-0.7l2.3,1.3l-1.2,0.7
					L321.5,239.3L321.5,239.3z M325.3,241.5C325.3,241.4,325.3,241.4,325.3,241.5l1.2-0.7l2.3,1.3l-1.2,0.7L325.3,241.5L325.3,241.5
					z"/>
			</g>
		</g>
		<g id="Device">
			<polygon id="Shadow_29_" class="st28" points="402.7,250.3 428.4,235.5 300.1,161.4 274.4,176.2 			"/>
			<g id="Monitor_2_">
				<g id="XMLID_3761_">
					<g id="XMLID_3766_">
						<path id="XMLID_3767_" class="st22" d="M330.1,226.2l-18.3-10.6c-1.9-1.1-2.8-2.5-2.8-3.9c0-1.4,0-2.5,0-2.5l17.2-9.8
							c1-0.6,1.8-2,1.8-3.2v-22.6l32,18.5l0,22.6c0,1.2-0.8,2.6-1.8,3.2l-14.4,8.4C340,228.4,333.8,228.4,330.1,226.2z"/>
					</g>
					<path id="XMLID_3765_" class="st30" d="M352.3,218.6v2.5l5.9-3.4c1-0.6,1.8-2,1.8-3.2v-22.6l-6.1-3.5c-0.1,1.5-0.3,3.1-0.4,4.7
						l4.3,2.5v17.6c0,1.2-0.8,2.6-1.8,3.2L352.3,218.6z"/>
					<path id="XMLID_3764_" class="st21" d="M357.7,213.4c0,1.2-0.8,2.6-1.8,3.2l-12.2,7.1c-3.8,2.2-9.9,2.2-13.7,0l-18.3-10.6
						c-3.8-2.2-3.8-5.7,0-7.9l12.2-7.1c1-0.6,1.8-2,1.8-3.2l0-17.6l32,18.5V213.4z"/>
					<path id="XMLID_3763_" class="st31" d="M320.2,200.2L320.2,200.2l3.7-2.1c1-0.6,1.8-2,1.8-3.2v-17.6l32,18.5v17.6
						c0,1.2-0.8,2.6-1.8,3.2l-3.6,2.1L320.2,200.2z"/>
					<path id="XMLID_3762_" class="st31" d="M308.9,209.1c0,0,0,1.1,0,2.5s0.9,2.9,2.8,3.9l18.3,10.6c1.8,1.1,4.2,1.6,6.5,1.6v-2.5
						c-2.4,0-4.7-0.6-6.5-1.6l-18.3-10.6C309.9,212,308.9,210.5,308.9,209.1z"/>
				</g>
				<path id="XMLID_3760_" class="st23" d="M409.1,237.7c-1.2,0.7-3.2,0.6-4.4-0.1c-15.7-9.1-108-62.3-123.7-71.4
					c-1.3-0.7-2.3-2.5-2.3-3.9V54c0-1.5,1-3.2,2.1-3.9c1.2-0.7,3.2-0.6,4.4,0.1L409,121.6c1.3,0.7,2.3,2.5,2.3,3.9l0,108.3
					C411.2,235.3,410.3,237.1,409.1,237.7z"/>
				<path id="XMLID_3758_" class="st12" d="M404.7,237.7L281,166.2c-1.3-0.7-2.3-2.5-2.3-3.9V54c0-1.5,1-2,2.3-1.3l123.7,71.4
					c1.3,0.7,2.3,2.5,2.3,3.9l0,108.3C407,237.8,406,238.4,404.7,237.7z"/>
				<path id="XMLID_3757_" class="st30" d="M405,238.1c1.3,0.6,3,0.5,4.1-0.1c1.2-0.7,2.1-2.4,2.1-3.9V222l-4.3,2.5v12.2
					C407,237.9,406.1,238.5,405,238.1z"/>
				<path id="XMLID_3756_" class="st32" d="M407,224.4l0,12.2c0,1.5-1,2-2.3,1.3L281,166.5c-1.3-0.7-2.3-2.5-2.3-3.9v-12.2
					L407,224.4z"/>
				<path id="XMLID_3755_" class="st24" d="M402.7,215.2l0-85.7c0-0.9-0.6-1.9-1.4-2.4l-117-67.5c-0.8-0.4-1.4-0.1-1.4,0.8l0,85.7
					c0,0.9,0.6,1.9,1.4,2.4l117,67.5C402.1,216.4,402.7,216,402.7,215.2z"/>
				<path id="XMLID_3754_" class="st33" d="M402.7,215.2l0-85.7c0-0.9-0.6-1.9-1.4-2.4l-117-67.5c-0.8-0.4-1.4-0.1-1.4,0.8l0,85.7
					c0,0.9,0.6,1.9,1.4,2.4l117,67.5C402.1,216.4,402.7,216,402.7,215.2z"/>
				<path id="XMLID_3658_" class="st23" d="M342.8,192.1c1.2,0.7,2.1,2.3,2.1,3.7c0,1.4-1,1.9-2.1,1.2c-1.2-0.7-2.1-2.3-2.1-3.7
					C340.7,191.9,341.7,191.4,342.8,192.1z"/>
				<path id="XMLID_3657_" class="st29" d="M406.3,125.8c0.4,0.7,0.7,1.5,0.7,2.3v96.4l4.3-2.5v-96.4c0-0.7-0.3-1.5-0.7-2.3
					L406.3,125.8z"/>
			</g>
		</g>
		<g id="Window_1_">
			<g id="Window_3_">
				<path class="st23" d="M298.9,31.6c0-0.1,0-0.1,0-0.2c0,0,0,0,0,0c0-0.1,0-0.1,0.1-0.2c0-0.1,0.1-0.2,0.1-0.3c0,0,0-0.1,0.1-0.1
					c0,0,0-0.1,0.1-0.1c0-0.1,0.1-0.1,0.1-0.1c0,0,0,0,0,0c0.1,0,0.1-0.1,0.2-0.1c0.4-0.2,0.9-0.1,1.5,0.2L445.5,114
					c1.2,0.7,2.2,2.4,2.2,3.8v104.5c0,0,0,0,0,0v0.5c0,0.6-0.3,1.1-0.8,1.3c0,0-0.1,0-0.1,0.1c0,0-0.1,0-0.1,0.1
					c-0.1,0-0.1,0.1-0.2,0.1c-0.1,0-0.2,0-0.3,0c-0.2,0-0.5-0.1-0.7-0.2l-0.1,0c0,0,0,0,0,0l-2.1-1.2l-142.2-82.1
					c-1.2-0.7-2.2-2.4-2.2-3.8v-105C298.9,31.8,298.9,31.7,298.9,31.6z"/>
				<g id="XMLID_3010_">
					<g id="XMLID_3044_">
						<path class="st24" d="M299.6,30.5c0.4-0.2,0.9-0.1,1.5,0.2L445.5,114c1.2,0.7,2.2,2.4,2.2,3.8v7.1l2.8-1.6v-7.1
							c0-1.4-1-3.1-2.2-3.8L303.9,29.1c-0.6-0.4-1.2-0.4-1.6-0.1C301.9,29.2,300.1,30.2,299.6,30.5z"/>
					</g>
					<path id="XMLID_3036_" class="st24" d="M298.9,31.9c0-1.4,1-1.9,2.2-1.2L445.5,114c1.2,0.7,2.2,2.4,2.2,3.8l0,7.1L298.9,39
						V31.9z"/>
					<g id="XMLID_3027_" class="st34">
						<path class="st32" d="M301.1,30.6L445.5,114c0.6,0.3,1.1,0.9,1.5,1.6l2.8-1.6c-0.4-0.7-0.9-1.3-1.5-1.6L303.9,29.1
							c-0.6-0.4-1.2-0.4-1.6-0.1c-0.4,0.2-2.2,1.3-2.7,1.5C300,30.3,300.5,30.3,301.1,30.6z"/>
					</g>
					<path id="XMLID_3011_" class="st28" d="M450.5,123.3l0-7.1c0-0.7-0.3-1.5-0.7-2.2l-2.8,1.6c0.4,0.7,0.7,1.5,0.7,2.2v7.1
						L450.5,123.3z"/>
				</g>
				<g id="XMLID_3000_">
					<path id="XMLID_3009_" class="st23" d="M442.8,115.5c0.7,0.4,1.2,1.6,1.2,2.6c0,1-0.6,1.6-1.2,1.2c-0.7-0.4-1.2-1.6-1.2-2.6
						C441.5,115.6,442.1,115.1,442.8,115.5z"/>
					<path id="XMLID_3002_" class="st23" d="M438.3,112.9c0.7,0.4,1.2,1.6,1.2,2.6c0,1-0.6,1.6-1.2,1.2c-0.7-0.4-1.2-1.6-1.2-2.6
						C437.1,113,437.6,112.5,438.3,112.9z"/>
					<path id="XMLID_3001_" class="st23" d="M433.9,110.3c0.7,0.4,1.2,1.6,1.2,2.6c0,1-0.6,1.6-1.2,1.2c-0.7-0.4-1.2-1.6-1.2-2.6
						S433.2,109.9,433.9,110.3z"/>
				</g>
				<path class="st35" d="M446.9,224.1l0.1-0.1l2.3-1.3c0.6-0.4,1-1,1.1-1.7c0-0.1,0-0.2,0-0.3v-97.4l-2.8,1.6v97.9
					c0,0.5-0.3,1-0.7,1.2C447,224,446.9,224,446.9,224.1C446.9,224,446.9,224,446.9,224.1L446.9,224.1z"/>
			</g>
			<g id="Code">
				<g>
					<path id="XMLID_2979_" class="st24" d="M343.2,76.2l30.4,17.5c0.4,0.2,0.8,0.8,0.8,1.3c0,0.5-0.3,0.6-0.8,0.4l-30.4-17.5
						c-0.4-0.2-0.8-0.8-0.8-1.3C342.4,76.2,342.7,76,343.2,76.2z"/>
					<path id="XMLID_2977_" class="st22" d="M354.8,109.8l11.5,6.6c0.4,0.2,0.8,0.8,0.8,1.3c0,0.5-0.3,0.6-0.8,0.4l-11.5-6.6
						c-0.4-0.2-0.8-0.8-0.8-1.3C354,109.7,354.4,109.6,354.8,109.8z"/>
					<path id="XMLID_2971_" class="st22" d="M354.8,116.5l11.5,6.6c0.4,0.2,0.8,0.8,0.8,1.3c0,0.5-0.3,0.6-0.8,0.4l-11.5-6.6
						c-0.4-0.2-0.8-0.8-0.8-1.3C354,116.5,354.4,116.3,354.8,116.5z"/>
					<path id="XMLID_2967_" class="st24" d="M376.6,95.5l60.9,35.1c0.4,0.2,0.8,0.8,0.8,1.3c0,0.5-0.3,0.6-0.8,0.4l-60.9-35.1
						c-0.4-0.2-0.8-0.8-0.8-1.3C375.8,95.4,376.2,95.3,376.6,95.5z"/>
					<path id="XMLID_2926_" class="st24" d="M355,156.9l18.6,10.7c0.4,0.2,0.8,0.8,0.8,1.3s-0.3,0.6-0.8,0.4L355,158.6
						c-0.4-0.2-0.8-0.8-0.8-1.3C354.3,156.8,354.6,156.7,355,156.9z"/>
					<path id="XMLID_2925_" class="st24" d="M376.6,169.4l60.9,35.1c0.4,0.2,0.8,0.8,0.8,1.3c0,0.5-0.3,0.6-0.8,0.4l-60.9-35.1
						c-0.4-0.2-0.8-0.8-0.8-1.3C375.8,169.3,376.2,169.1,376.6,169.4z"/>
					<g id="XMLID_2876_">
						<path id="XMLID_2905_" class="st24" d="M343.2,83l15.3,8.8c0.4,0.2,0.8,0.8,0.8,1.3c0,0.5-0.3,0.6-0.8,0.4l-15.3-8.8
							c-0.4-0.2-0.8-0.8-0.8-1.3S342.7,82.7,343.2,83z"/>
						<path id="XMLID_2890_" class="st36" d="M343.2,83l15.3,8.8c0.4,0.2,0.8,0.8,0.8,1.3c0,0.5-0.3,0.6-0.8,0.4l-15.3-8.8
							c-0.4-0.2-0.8-0.8-0.8-1.3S342.7,82.7,343.2,83z"/>
					</g>
					<g id="XMLID_2873_">
						<path id="XMLID_2875_" class="st24" d="M343.2,89.7l7.2,4.1c0.4,0.2,0.8,0.8,0.8,1.3c0,0.5-0.3,0.6-0.8,0.4l-7.2-4.1
							c-0.4-0.2-0.8-0.8-0.8-1.3C342.4,89.6,342.7,89.4,343.2,89.7z"/>
						<path id="XMLID_2874_" class="st36" d="M343.2,89.7l7.2,4.1c0.4,0.2,0.8,0.8,0.8,1.3c0,0.5-0.3,0.6-0.8,0.4l-7.2-4.1
							c-0.4-0.2-0.8-0.8-0.8-1.3C342.4,89.6,342.7,89.4,343.2,89.7z"/>
					</g>
					<g id="XMLID_2867_">
						<path id="XMLID_2869_" class="st24" d="M343.2,103.1l7.2,4.1c0.4,0.2,0.8,0.8,0.8,1.3c0,0.5-0.3,0.6-0.8,0.4l-7.2-4.1
							c-0.4-0.2-0.8-0.8-0.8-1.3C342.4,103,342.7,102.9,343.2,103.1z"/>
						<path id="XMLID_2868_" class="st36" d="M343.2,103.1l7.2,4.1c0.4,0.2,0.8,0.8,0.8,1.3c0,0.5-0.3,0.6-0.8,0.4l-7.2-4.1
							c-0.4-0.2-0.8-0.8-0.8-1.3C342.4,103,342.7,102.9,343.2,103.1z"/>
					</g>
					<g id="XMLID_2864_">
						<path id="XMLID_2866_" class="st24" d="M343.2,109.8l7.2,4.1c0.4,0.2,0.8,0.8,0.8,1.3s-0.3,0.6-0.8,0.4l-7.2-4.1
							c-0.4-0.2-0.8-0.8-0.8-1.3S342.7,109.6,343.2,109.8z"/>
						<path id="XMLID_2865_" class="st36" d="M343.2,109.8l7.2,4.1c0.4,0.2,0.8,0.8,0.8,1.3s-0.3,0.6-0.8,0.4l-7.2-4.1
							c-0.4-0.2-0.8-0.8-0.8-1.3S342.7,109.6,343.2,109.8z"/>
					</g>
					<g id="XMLID_2855_">
						<path id="XMLID_2863_" class="st24" d="M361.5,93.5l9.2,5.3c0.4,0.2,0.8,0.8,0.8,1.3c0,0.5-0.3,0.6-0.8,0.4l-9.2-5.3
							c-0.4-0.2-0.8-0.8-0.8-1.3C360.7,93.4,361.1,93.3,361.5,93.5z"/>
						<path id="XMLID_2862_" class="st36" d="M361.5,93.5l9.2,5.3c0.4,0.2,0.8,0.8,0.8,1.3c0,0.5-0.3,0.6-0.8,0.4l-9.2-5.3
							c-0.4-0.2-0.8-0.8-0.8-1.3C360.7,93.4,361.1,93.3,361.5,93.5z"/>
					</g>
					<g id="XMLID_2853_">
						<path id="XMLID_2854_" class="st4" d="M375.7,142.1l61.8,35.6c0.4,0.2,0.8,0.8,0.8,1.3s-0.3,0.6-0.8,0.4l-61.8-35.6
							c-0.4-0.2-0.8-0.8-0.8-1.3C374.9,142,375.3,141.8,375.7,142.1z"/>
					</g>
					<g id="XMLID_2851_">
						<path id="XMLID_2852_" class="st4" d="M428.3,165.6l9.2,5.3c0.4,0.2,0.8,0.8,0.8,1.3s-0.3,0.6-0.8,0.4l-9.2-5.3
							c-0.4-0.2-0.8-0.8-0.8-1.3C427.6,165.5,427.9,165.4,428.3,165.6z"/>
					</g>
					<g id="XMLID_2849_">
						<path id="XMLID_2850_" class="st4" d="M363.5,128.3l61.8,35.6c0.4,0.2,0.8,0.8,0.8,1.3s-0.3,0.6-0.8,0.4L363.5,130
							c-0.4-0.2-0.8-0.8-0.8-1.3C362.7,128.2,363.1,128,363.5,128.3z"/>
					</g>
					<g id="XMLID_2846_">
						<path id="XMLID_2848_" class="st24" d="M354.8,96.4l15.3,8.8c0.4,0.2,0.8,0.8,0.8,1.3c0,0.5-0.3,0.6-0.8,0.4l-15.3-8.8
							c-0.4-0.2-0.8-0.8-0.8-1.3C354,96.3,354.4,96.1,354.8,96.4z"/>
						<path id="XMLID_2847_" class="st36" d="M354.8,96.4l15.3,8.8c0.4,0.2,0.8,0.8,0.8,1.3c0,0.5-0.3,0.6-0.8,0.4l-15.3-8.8
							c-0.4-0.2-0.8-0.8-0.8-1.3C354,96.3,354.4,96.1,354.8,96.4z"/>
					</g>
					<g id="XMLID_2823_">
						<path id="XMLID_2845_" class="st24" d="M373.1,106.9l64,37c0.4,0.2,0.8,0.8,0.8,1.3c0,0.5-0.3,0.6-0.8,0.4l-64-37
							c-0.4-0.2-0.8-0.8-0.8-1.3C372.3,106.9,372.7,106.7,373.1,106.9z"/>
						<path id="XMLID_2839_" class="st36" d="M373.1,106.9l64,37c0.4,0.2,0.8,0.8,0.8,1.3c0,0.5-0.3,0.6-0.8,0.4l-64-37
							c-0.4-0.2-0.8-0.8-0.8-1.3C372.3,106.9,372.7,106.7,373.1,106.9z"/>
					</g>
					<path id="XMLID_2978_" class="st22" d="M354.8,136.8l82.8,47.7c0.4,0.2,0.8,0.8,0.8,1.3s-0.3,0.6-0.8,0.4l-82.8-47.7
						c-0.4-0.2-0.8-0.8-0.8-1.3C354,136.7,354.4,136.6,354.8,136.8z"/>
					<g id="XMLID_2870_">
						<path id="XMLID_2872_" class="st24" d="M343.2,130.1l7.2,4.1c0.4,0.2,0.8,0.8,0.8,1.3c0,0.5-0.3,0.6-0.8,0.4l-7.2-4.1
							c-0.4-0.2-0.8-0.8-0.8-1.3C342.4,130,342.7,129.9,343.2,130.1z"/>
						<path id="XMLID_2871_" class="st36" d="M343.2,130.1l7.2,4.1c0.4,0.2,0.8,0.8,0.8,1.3c0,0.5-0.3,0.6-0.8,0.4l-7.2-4.1
							c-0.4-0.2-0.8-0.8-0.8-1.3C342.4,130,342.7,129.9,343.2,130.1z"/>
					</g>
					<path id="XMLID_2986_" class="st22" d="M354.8,143.5l82.8,47.7c0.4,0.2,0.8,0.8,0.8,1.3c0,0.5-0.3,0.6-0.8,0.4l-82.8-47.7
						c-0.4-0.2-0.8-0.8-0.8-1.3S354.4,143.3,354.8,143.5z"/>
					<g id="XMLID_2981_">
						<path id="XMLID_2984_" class="st24" d="M343.2,136.8l7.2,4.1c0.4,0.2,0.8,0.8,0.8,1.3s-0.3,0.6-0.8,0.4l-7.2-4.1
							c-0.4-0.2-0.8-0.8-0.8-1.3C342.4,136.7,342.7,136.6,343.2,136.8z"/>
						<path id="XMLID_2983_" class="st36" d="M343.2,136.8l7.2,4.1c0.4,0.2,0.8,0.8,0.8,1.3s-0.3,0.6-0.8,0.4l-7.2-4.1
							c-0.4-0.2-0.8-0.8-0.8-1.3C342.4,136.7,342.7,136.6,343.2,136.8z"/>
					</g>
					<path id="XMLID_2994_" class="st22" d="M354.8,150.2l82.8,47.7c0.4,0.2,0.8,0.8,0.8,1.3s-0.3,0.6-0.8,0.4l-82.8-47.7
						c-0.4-0.2-0.8-0.8-0.8-1.3C354,150.2,354.4,150,354.8,150.2z"/>
					<g id="XMLID_2991_">
						<path id="XMLID_2993_" class="st24" d="M343.2,143.5l7.2,4.1c0.4,0.2,0.8,0.8,0.8,1.3c0,0.5-0.3,0.6-0.8,0.4l-7.2-4.1
							c-0.4-0.2-0.8-0.8-0.8-1.3C342.4,143.5,342.7,143.3,343.2,143.5z"/>
						<path id="XMLID_2992_" class="st36" d="M343.2,143.5l7.2,4.1c0.4,0.2,0.8,0.8,0.8,1.3c0,0.5-0.3,0.6-0.8,0.4l-7.2-4.1
							c-0.4-0.2-0.8-0.8-0.8-1.3C342.4,143.5,342.7,143.3,343.2,143.5z"/>
					</g>
				</g>
				<g class="st37">
					<g>
						<path class="st32" d="M332,69.5l4.2,2.4c0.4,0.2,0.8,0.8,0.8,1.3v1.5c0,0.5-0.3,0.7-0.8,0.4l-4.2-2.4
							c-0.4-0.2-0.8-0.8-0.8-1.3l0-1.6C331.2,69.5,331.5,69.3,332,69.5z"/>
						<path class="st32" d="M332,76.3l4.2,2.4c0.4,0.2,0.8,0.8,0.8,1.3v1.5c0,0.5-0.3,0.7-0.8,0.4l-4.2-2.4
							c-0.4-0.2-0.8-0.8-0.8-1.3l0-1.5C331.2,76.2,331.5,76,332,76.3z"/>
						<path class="st32" d="M332,83.1l4.2,2.4c0.4,0.2,0.8,0.8,0.8,1.3v1.5c0,0.5-0.3,0.7-0.8,0.4l-4.2-2.4
							c-0.4-0.2-0.8-0.8-0.8-1.3l0-1.6C331.2,83,331.5,82.8,332,83.1z"/>
						<path class="st32" d="M332,89.8l4.2,2.4c0.4,0.2,0.8,0.8,0.8,1.3v1.5c0,0.5-0.3,0.7-0.8,0.4l-4.2-2.4
							c-0.4-0.2-0.8-0.8-0.8-1.3l0-1.5C331.2,89.8,331.5,89.6,332,89.8z"/>
						<path class="st32" d="M332,96.6l4.2,2.4c0.4,0.2,0.8,0.8,0.8,1.3v1.5c0,0.5-0.3,0.7-0.8,0.4l-4.2-2.4
							c-0.4-0.2-0.8-0.8-0.8-1.3l0-1.6C331.2,96.6,331.5,96.4,332,96.6z"/>
						<path class="st32" d="M332,103.4l4.2,2.4c0.4,0.2,0.8,0.8,0.8,1.3v1.5c0,0.5-0.3,0.7-0.8,0.4l-4.2-2.4
							c-0.4-0.2-0.8-0.8-0.8-1.3l0-1.6C331.2,103.4,331.5,103.2,332,103.4z"/>
						<path class="st32" d="M332,110.2l4.2,2.4c0.4,0.2,0.8,0.8,0.8,1.3v1.5c0,0.5-0.3,0.7-0.8,0.4l-4.2-2.4
							c-0.4-0.2-0.8-0.8-0.8-1.3l0-1.6C331.2,110.1,331.5,109.9,332,110.2z"/>
						<path class="st32" d="M332,117l4.2,2.4c0.4,0.2,0.8,0.8,0.8,1.3v1.5c0,0.5-0.3,0.7-0.8,0.4l-4.2-2.4c-0.4-0.2-0.8-0.8-0.8-1.3
							l0-1.5C331.2,116.9,331.5,116.7,332,117z"/>
						<path class="st32" d="M332,123.7l4.2,2.4c0.4,0.2,0.8,0.8,0.8,1.3v1.6c0,0.5-0.3,0.7-0.8,0.4l-4.2-2.4
							c-0.4-0.2-0.8-0.8-0.8-1.3l0-1.5C331.2,123.7,331.5,123.5,332,123.7z"/>
						<path class="st32" d="M332,130.5l4.2,2.4c0.4,0.2,0.8,0.8,0.8,1.3v1.6c0,0.5-0.3,0.7-0.8,0.4l-4.2-2.4
							c-0.4-0.2-0.8-0.8-0.8-1.3l0-1.5C331.2,130.5,331.5,130.3,332,130.5z"/>
						<path class="st32" d="M332,137.3l4.2,2.4c0.4,0.2,0.8,0.8,0.8,1.3v1.5c0,0.5-0.3,0.7-0.8,0.4l-4.2-2.4
							c-0.4-0.2-0.8-0.8-0.8-1.3l0-1.6C331.2,137.2,331.5,137,332,137.3z"/>
						<path class="st32" d="M332,144.1l4.2,2.4c0.4,0.2,0.8,0.8,0.8,1.3v1.5c0,0.5-0.3,0.7-0.8,0.4l-4.2-2.4
							c-0.4-0.2-0.8-0.8-0.8-1.3l0-1.6C331.2,144,331.5,143.8,332,144.1z"/>
					</g>
				</g>
				<g>
					<path class="st12" d="M304,47.5l22.8,13.2c0.8,0.5,1.5,1.7,1.5,2.7l0,26.3c0,1-0.7,1.4-1.5,0.9L304,77.3
						c-0.8-0.5-1.5-1.7-1.5-2.7V48.4C302.5,47.4,303.2,47,304,47.5z"/>
					<g>
						<g>
							<path id="XMLID_2822_" class="st24" d="M306.1,73.6l2.1,1.2c0.4,0.2,0.8,0.8,0.8,1.3s-0.3,0.6-0.8,0.4l-2.1-1.2
								c-0.4-0.2-0.8-0.8-0.8-1.3C305.3,73.5,305.7,73.3,306.1,73.6z"/>
							<path id="XMLID_2821_" class="st36" d="M306.1,73.6l2.1,1.2c0.4,0.2,0.8,0.8,0.8,1.3s-0.3,0.6-0.8,0.4l-2.1-1.2
								c-0.4-0.2-0.8-0.8-0.8-1.3C305.3,73.5,305.7,73.3,306.1,73.6z"/>
						</g>
						<g>
							<path id="XMLID_2820_" class="st24" d="M306.1,52l2.1,1.2c0.4,0.2,0.8,0.8,0.8,1.3c0,0.5-0.3,0.6-0.8,0.4l-2.1-1.2
								c-0.4-0.2-0.8-0.8-0.8-1.3C305.3,52,305.7,51.8,306.1,52z"/>
							<path id="XMLID_529_" class="st36" d="M306.1,52l2.1,1.2c0.4,0.2,0.8,0.8,0.8,1.3c0,0.5-0.3,0.6-0.8,0.4l-2.1-1.2
								c-0.4-0.2-0.8-0.8-0.8-1.3C305.3,52,305.7,51.8,306.1,52z"/>
						</g>
						<g>
							<path class="st24" d="M309.1,58l2.1,1.2c0.4,0.2,0.8,0.8,0.8,1.3c0,0.5-0.3,0.6-0.8,0.4l-2.1-1.2c-0.4-0.2-0.8-0.8-0.8-1.3
								C308.3,58,308.6,57.8,309.1,58z"/>
							<path class="st36" d="M309.1,58l2.1,1.2c0.4,0.2,0.8,0.8,0.8,1.3c0,0.5-0.3,0.6-0.8,0.4l-2.1-1.2c-0.4-0.2-0.8-0.8-0.8-1.3
								C308.3,58,308.6,57.8,309.1,58z"/>
						</g>
						<g>
							<path class="st24" d="M309.1,62.3l2.1,1.2c0.4,0.2,0.8,0.8,0.8,1.3c0,0.5-0.3,0.6-0.8,0.4l-2.1-1.2c-0.4-0.2-0.8-0.8-0.8-1.3
								C308.3,62.3,308.6,62.1,309.1,62.3z"/>
							<path class="st36" d="M309.1,62.3l2.1,1.2c0.4,0.2,0.8,0.8,0.8,1.3c0,0.5-0.3,0.6-0.8,0.4l-2.1-1.2c-0.4-0.2-0.8-0.8-0.8-1.3
								C308.3,62.3,308.6,62.1,309.1,62.3z"/>
						</g>
						<g>
							<path class="st24" d="M306.1,65l2.1,1.2c0.4,0.2,0.8,0.8,0.8,1.3c0,0.5-0.3,0.6-0.8,0.4l-2.1-1.2c-0.4-0.2-0.8-0.8-0.8-1.3
								C305.3,64.9,305.7,64.7,306.1,65z"/>
							<path class="st36" d="M306.1,65l2.1,1.2c0.4,0.2,0.8,0.8,0.8,1.3c0,0.5-0.3,0.6-0.8,0.4l-2.1-1.2c-0.4-0.2-0.8-0.8-0.8-1.3
								C305.3,64.9,305.7,64.7,306.1,65z"/>
						</g>
						<g>
							<path class="st24" d="M309.1,71l2.1,1.2c0.4,0.2,0.8,0.8,0.8,1.3c0,0.5-0.3,0.6-0.8,0.4l-2.1-1.2c-0.4-0.2-0.8-0.8-0.8-1.3
								C308.3,70.9,308.6,70.7,309.1,71z"/>
							<path class="st36" d="M309.1,71l2.1,1.2c0.4,0.2,0.8,0.8,0.8,1.3c0,0.5-0.3,0.6-0.8,0.4l-2.1-1.2c-0.4-0.2-0.8-0.8-0.8-1.3
								C308.3,70.9,308.6,70.7,309.1,71z"/>
						</g>
					</g>
					<g>
						<g>
							<path id="XMLID_354_" class="st24" d="M311.9,55.3l12.8,7.4c0.4,0.2,0.8,0.8,0.8,1.3c0,0.5-0.3,0.6-0.8,0.4L311.9,57
								c-0.4-0.2-0.8-0.8-0.8-1.3C311.1,55.3,311.4,55.1,311.9,55.3z"/>
							<path id="XMLID_353_" class="st38" d="M311.9,55.3l12.8,7.4c0.4,0.2,0.8,0.8,0.8,1.3c0,0.5-0.3,0.6-0.8,0.4L311.9,57
								c-0.4-0.2-0.8-0.8-0.8-1.3C311.1,55.3,311.4,55.1,311.9,55.3z"/>
						</g>
						<g>
							<path id="XMLID_352_" class="st24" d="M311.9,76.9l12.8,7.4c0.4,0.2,0.8,0.8,0.8,1.3s-0.3,0.6-0.8,0.4l-12.8-7.4
								c-0.4-0.2-0.8-0.8-0.8-1.3C311.1,76.8,311.4,76.7,311.9,76.9z"/>
							<path id="XMLID_343_" class="st38" d="M311.9,76.9l12.8,7.4c0.4,0.2,0.8,0.8,0.8,1.3s-0.3,0.6-0.8,0.4l-12.8-7.4
								c-0.4-0.2-0.8-0.8-0.8-1.3C311.1,76.8,311.4,76.7,311.9,76.9z"/>
						</g>
						<g>
							<path class="st24" d="M314.8,61.3l9.9,5.7c0.4,0.2,0.8,0.8,0.8,1.3c0,0.5-0.3,0.6-0.8,0.4l-9.9-5.7c-0.4-0.2-0.8-0.8-0.8-1.3
								C314,61.3,314.4,61.1,314.8,61.3z"/>
							<path class="st38" d="M314.8,61.3l9.9,5.7c0.4,0.2,0.8,0.8,0.8,1.3c0,0.5-0.3,0.6-0.8,0.4l-9.9-5.7c-0.4-0.2-0.8-0.8-0.8-1.3
								C314,61.3,314.4,61.1,314.8,61.3z"/>
						</g>
						<g>
							<path class="st24" d="M314.8,65.7l9.9,5.7c0.4,0.2,0.8,0.8,0.8,1.3c0,0.5-0.3,0.6-0.8,0.4l-9.9-5.7c-0.4-0.2-0.8-0.8-0.8-1.3
								C314,65.6,314.4,65.4,314.8,65.7z"/>
							<path class="st38" d="M314.8,65.7l9.9,5.7c0.4,0.2,0.8,0.8,0.8,1.3c0,0.5-0.3,0.6-0.8,0.4l-9.9-5.7c-0.4-0.2-0.8-0.8-0.8-1.3
								C314,65.6,314.4,65.4,314.8,65.7z"/>
						</g>
						<g>
							<path class="st24" d="M311.9,68.3l12.8,7.4c0.4,0.2,0.8,0.8,0.8,1.3c0,0.5-0.3,0.6-0.8,0.4L311.9,70
								c-0.4-0.2-0.8-0.8-0.8-1.3S311.4,68,311.9,68.3z"/>
							<path class="st38" d="M311.9,68.3l12.8,7.4c0.4,0.2,0.8,0.8,0.8,1.3c0,0.5-0.3,0.6-0.8,0.4L311.9,70
								c-0.4-0.2-0.8-0.8-0.8-1.3S311.4,68,311.9,68.3z"/>
						</g>
						<g>
							<path class="st24" d="M314.8,74.3l9.9,5.7c0.4,0.2,0.8,0.8,0.8,1.3s-0.3,0.6-0.8,0.4l-9.9-5.7c-0.4-0.2-0.8-0.8-0.8-1.3
								C314,74.2,314.4,74,314.8,74.3z"/>
							<path class="st38" d="M314.8,74.3l9.9,5.7c0.4,0.2,0.8,0.8,0.8,1.3s-0.3,0.6-0.8,0.4l-9.9-5.7c-0.4-0.2-0.8-0.8-0.8-1.3
								C314,74.2,314.4,74,314.8,74.3z"/>
						</g>
					</g>
				</g>
				<g>
					<path class="st12" d="M304,82.3l22.8,13.2c0.8,0.5,1.5,1.7,1.5,2.7l0,52c0,1-0.7,1.4-1.5,0.9L304,137.9
						c-0.8-0.5-1.5-1.7-1.5-2.7v-52C302.5,82.2,303.2,81.8,304,82.3z"/>
					<g>
						<g>
							<path id="XMLID_342_" class="st24" d="M306.1,86.8l2.1,1.2c0.4,0.2,0.8,0.8,0.8,1.3c0,0.5-0.3,0.6-0.8,0.4l-2.1-1.2
								c-0.4-0.2-0.8-0.8-0.8-1.3C305.3,86.8,305.7,86.6,306.1,86.8z"/>
							<path id="XMLID_341_" class="st36" d="M306.1,86.8l2.1,1.2c0.4,0.2,0.8,0.8,0.8,1.3c0,0.5-0.3,0.6-0.8,0.4l-2.1-1.2
								c-0.4-0.2-0.8-0.8-0.8-1.3C305.3,86.8,305.7,86.6,306.1,86.8z"/>
						</g>
						<g>
							<path class="st24" d="M309.1,92.8l2.1,1.2c0.4,0.2,0.8,0.8,0.8,1.3s-0.3,0.6-0.8,0.4l-2.1-1.2c-0.4-0.2-0.8-0.8-0.8-1.3
								C308.3,92.8,308.6,92.6,309.1,92.8z"/>
							<path class="st36" d="M309.1,92.8l2.1,1.2c0.4,0.2,0.8,0.8,0.8,1.3s-0.3,0.6-0.8,0.4l-2.1-1.2c-0.4-0.2-0.8-0.8-0.8-1.3
								C308.3,92.8,308.6,92.6,309.1,92.8z"/>
						</g>
						<g>
							<path class="st24" d="M309.1,97.1l2.1,1.2c0.4,0.2,0.8,0.8,0.8,1.3s-0.3,0.6-0.8,0.4l-2.1-1.2c-0.4-0.2-0.8-0.8-0.8-1.3
								C308.3,97.1,308.6,96.9,309.1,97.1z"/>
							<path class="st36" d="M309.1,97.1l2.1,1.2c0.4,0.2,0.8,0.8,0.8,1.3s-0.3,0.6-0.8,0.4l-2.1-1.2c-0.4-0.2-0.8-0.8-0.8-1.3
								C308.3,97.1,308.6,96.9,309.1,97.1z"/>
						</g>
						<g>
							<path class="st24" d="M306.1,99.8l2.1,1.2c0.4,0.2,0.8,0.8,0.8,1.3s-0.3,0.6-0.8,0.4l-2.1-1.2c-0.4-0.2-0.8-0.8-0.8-1.3
								C305.3,99.7,305.7,99.5,306.1,99.8z"/>
							<path class="st36" d="M306.1,99.8l2.1,1.2c0.4,0.2,0.8,0.8,0.8,1.3s-0.3,0.6-0.8,0.4l-2.1-1.2c-0.4-0.2-0.8-0.8-0.8-1.3
								C305.3,99.7,305.7,99.5,306.1,99.8z"/>
						</g>
					</g>
					<g>
						<g>
							<path id="XMLID_340_" class="st24" d="M311.9,90.2l12.8,7.4c0.4,0.2,0.8,0.8,0.8,1.3s-0.3,0.6-0.8,0.4l-12.8-7.4
								c-0.4-0.2-0.8-0.8-0.8-1.3S311.4,89.9,311.9,90.2z"/>
							<path id="XMLID_321_" class="st38" d="M311.9,90.2l12.8,7.4c0.4,0.2,0.8,0.8,0.8,1.3s-0.3,0.6-0.8,0.4l-12.8-7.4
								c-0.4-0.2-0.8-0.8-0.8-1.3S311.4,89.9,311.9,90.2z"/>
						</g>
						<g>
							<path class="st24" d="M314.8,96.2l9.9,5.7c0.4,0.2,0.8,0.8,0.8,1.3c0,0.5-0.3,0.6-0.8,0.4l-9.9-5.7c-0.4-0.2-0.8-0.8-0.8-1.3
								C314,96.1,314.4,95.9,314.8,96.2z"/>
							<path class="st38" d="M314.8,96.2l9.9,5.7c0.4,0.2,0.8,0.8,0.8,1.3c0,0.5-0.3,0.6-0.8,0.4l-9.9-5.7c-0.4-0.2-0.8-0.8-0.8-1.3
								C314,96.1,314.4,95.9,314.8,96.2z"/>
						</g>
						<g>
							<path class="st24" d="M314.8,100.5l9.9,5.7c0.4,0.2,0.8,0.8,0.8,1.3c0,0.5-0.3,0.6-0.8,0.4l-9.9-5.7
								c-0.4-0.2-0.8-0.8-0.8-1.3C314,100.4,314.4,100.2,314.8,100.5z"/>
							<path class="st38" d="M314.8,100.5l9.9,5.7c0.4,0.2,0.8,0.8,0.8,1.3c0,0.5-0.3,0.6-0.8,0.4l-9.9-5.7
								c-0.4-0.2-0.8-0.8-0.8-1.3C314,100.4,314.4,100.2,314.8,100.5z"/>
						</g>
						<g>
							<path class="st24" d="M311.9,103.1l12.8,7.4c0.4,0.2,0.8,0.8,0.8,1.3c0,0.5-0.3,0.6-0.8,0.4l-12.8-7.4
								c-0.4-0.2-0.8-0.8-0.8-1.3S311.4,102.8,311.9,103.1z"/>
							<path class="st38" d="M311.9,103.1l12.8,7.4c0.4,0.2,0.8,0.8,0.8,1.3c0,0.5-0.3,0.6-0.8,0.4l-12.8-7.4
								c-0.4-0.2-0.8-0.8-0.8-1.3S311.4,102.8,311.9,103.1z"/>
						</g>
						<g>
							<path class="st24" d="M309.1,105.8l2.1,1.2c0.4,0.2,0.8,0.8,0.8,1.3s-0.3,0.6-0.8,0.4l-2.1-1.2c-0.4-0.2-0.8-0.8-0.8-1.3
								C308.3,105.7,308.6,105.6,309.1,105.8z"/>
							<path class="st36" d="M309.1,105.8l2.1,1.2c0.4,0.2,0.8,0.8,0.8,1.3s-0.3,0.6-0.8,0.4l-2.1-1.2c-0.4-0.2-0.8-0.8-0.8-1.3
								C308.3,105.7,308.6,105.6,309.1,105.8z"/>
						</g>
						<g>
							<path class="st24" d="M309.1,110.1l2.1,1.2c0.4,0.2,0.8,0.8,0.8,1.3s-0.3,0.6-0.8,0.4l-2.1-1.2c-0.4-0.2-0.8-0.8-0.8-1.3
								C308.3,110,308.6,109.9,309.1,110.1z"/>
							<path class="st36" d="M309.1,110.1l2.1,1.2c0.4,0.2,0.8,0.8,0.8,1.3s-0.3,0.6-0.8,0.4l-2.1-1.2c-0.4-0.2-0.8-0.8-0.8-1.3
								C308.3,110,308.6,109.9,309.1,110.1z"/>
						</g>
						<g>
							<path class="st24" d="M314.8,109.1l9.9,5.7c0.4,0.2,0.8,0.8,0.8,1.3c0,0.5-0.3,0.6-0.8,0.4l-9.9-5.7
								c-0.4-0.2-0.8-0.8-0.8-1.3C314,109.1,314.4,108.9,314.8,109.1z"/>
							<path class="st38" d="M314.8,109.1l9.9,5.7c0.4,0.2,0.8,0.8,0.8,1.3c0,0.5-0.3,0.6-0.8,0.4l-9.9-5.7
								c-0.4-0.2-0.8-0.8-0.8-1.3C314,109.1,314.4,108.9,314.8,109.1z"/>
						</g>
						<g>
							<path class="st24" d="M314.8,113.4l9.9,5.7c0.4,0.2,0.8,0.8,0.8,1.3s-0.3,0.6-0.8,0.4l-9.9-5.7c-0.4-0.2-0.8-0.8-0.8-1.3
								C314,113.4,314.4,113.2,314.8,113.4z"/>
							<path class="st38" d="M314.8,113.4l9.9,5.7c0.4,0.2,0.8,0.8,0.8,1.3s-0.3,0.6-0.8,0.4l-9.9-5.7c-0.4-0.2-0.8-0.8-0.8-1.3
								C314,113.4,314.4,113.2,314.8,113.4z"/>
						</g>
						<g>
							<path class="st24" d="M306.1,121.4l2.1,1.2c0.4,0.2,0.8,0.8,0.8,1.3s-0.3,0.6-0.8,0.4l-2.1-1.2c-0.4-0.2-0.8-0.8-0.8-1.3
								C305.3,121.3,305.7,121.1,306.1,121.4z"/>
							<path class="st36" d="M306.1,121.4l2.1,1.2c0.4,0.2,0.8,0.8,0.8,1.3s-0.3,0.6-0.8,0.4l-2.1-1.2c-0.4-0.2-0.8-0.8-0.8-1.3
								C305.3,121.3,305.7,121.1,306.1,121.4z"/>
						</g>
						<g>
							<path class="st24" d="M311.9,124.7l12.8,7.4c0.4,0.2,0.8,0.8,0.8,1.3c0,0.5-0.3,0.6-0.8,0.4l-12.8-7.4
								c-0.4-0.2-0.8-0.8-0.8-1.3S311.4,124.5,311.9,124.7z"/>
							<path class="st38" d="M311.9,124.7l12.8,7.4c0.4,0.2,0.8,0.8,0.8,1.3c0,0.5-0.3,0.6-0.8,0.4l-12.8-7.4
								c-0.4-0.2-0.8-0.8-0.8-1.3S311.4,124.5,311.9,124.7z"/>
						</g>
						<g>
							<path class="st24" d="M309.1,127.4l2.1,1.2c0.4,0.2,0.8,0.8,0.8,1.3s-0.3,0.6-0.8,0.4l-2.1-1.2c-0.4-0.2-0.8-0.8-0.8-1.3
								C308.3,127.3,308.6,127.2,309.1,127.4z"/>
							<path class="st36" d="M309.1,127.4l2.1,1.2c0.4,0.2,0.8,0.8,0.8,1.3s-0.3,0.6-0.8,0.4l-2.1-1.2c-0.4-0.2-0.8-0.8-0.8-1.3
								C308.3,127.3,308.6,127.2,309.1,127.4z"/>
						</g>
						<g>
							<path class="st24" d="M309.1,131.7l2.1,1.2c0.4,0.2,0.8,0.8,0.8,1.3c0,0.5-0.3,0.6-0.8,0.4l-2.1-1.2
								c-0.4-0.2-0.8-0.8-0.8-1.3C308.3,131.6,308.6,131.5,309.1,131.7z"/>
							<path class="st36" d="M309.1,131.7l2.1,1.2c0.4,0.2,0.8,0.8,0.8,1.3c0,0.5-0.3,0.6-0.8,0.4l-2.1-1.2
								c-0.4-0.2-0.8-0.8-0.8-1.3C308.3,131.6,308.6,131.5,309.1,131.7z"/>
						</g>
						<g>
							<path class="st24" d="M314.8,130.7l9.9,5.7c0.4,0.2,0.8,0.8,0.8,1.3s-0.3,0.6-0.8,0.4l-9.9-5.7c-0.4-0.2-0.8-0.8-0.8-1.3
								C314,130.7,314.4,130.5,314.8,130.7z"/>
							<path class="st38" d="M314.8,130.7l9.9,5.7c0.4,0.2,0.8,0.8,0.8,1.3s-0.3,0.6-0.8,0.4l-9.9-5.7c-0.4-0.2-0.8-0.8-0.8-1.3
								C314,130.7,314.4,130.5,314.8,130.7z"/>
						</g>
						<g>
							<path class="st24" d="M314.8,135.1l9.9,5.7c0.4,0.2,0.8,0.8,0.8,1.3s-0.3,0.6-0.8,0.4l-9.9-5.7c-0.4-0.2-0.8-0.8-0.8-1.3
								C314,135,314.4,134.8,314.8,135.1z"/>
							<path class="st38" d="M314.8,135.1l9.9,5.7c0.4,0.2,0.8,0.8,0.8,1.3s-0.3,0.6-0.8,0.4l-9.9-5.7c-0.4-0.2-0.8-0.8-0.8-1.3
								C314,135,314.4,134.8,314.8,135.1z"/>
						</g>
						<g>
							<path class="st24" d="M309.1,114.4l2.1,1.2c0.4,0.2,0.8,0.8,0.8,1.3c0,0.5-0.3,0.6-0.8,0.4l-2.1-1.2
								c-0.4-0.2-0.8-0.8-0.8-1.3C308.3,114.3,308.6,114.1,309.1,114.4z"/>
							<path class="st36" d="M309.1,114.4l2.1,1.2c0.4,0.2,0.8,0.8,0.8,1.3c0,0.5-0.3,0.6-0.8,0.4l-2.1-1.2
								c-0.4-0.2-0.8-0.8-0.8-1.3C308.3,114.3,308.6,114.1,309.1,114.4z"/>
						</g>
						<g>
							<path class="st24" d="M306.1,117l2.1,1.2c0.4,0.2,0.8,0.8,0.8,1.3s-0.3,0.6-0.8,0.4l-2.1-1.2c-0.4-0.2-0.8-0.8-0.8-1.3
								C305.3,116.9,305.7,116.8,306.1,117z"/>
							<path class="st36" d="M306.1,117l2.1,1.2c0.4,0.2,0.8,0.8,0.8,1.3s-0.3,0.6-0.8,0.4l-2.1-1.2c-0.4-0.2-0.8-0.8-0.8-1.3
								C305.3,116.9,305.7,116.8,306.1,117z"/>
						</g>
						<g>
							<path class="st24" d="M314.8,117.7l9.9,5.7c0.4,0.2,0.8,0.8,0.8,1.3c0,0.5-0.3,0.6-0.8,0.4l-9.9-5.7
								c-0.4-0.2-0.8-0.8-0.8-1.3C314,117.6,314.4,117.5,314.8,117.7z"/>
							<path class="st38" d="M314.8,117.7l9.9,5.7c0.4,0.2,0.8,0.8,0.8,1.3c0,0.5-0.3,0.6-0.8,0.4l-9.9-5.7
								c-0.4-0.2-0.8-0.8-0.8-1.3C314,117.6,314.4,117.5,314.8,117.7z"/>
						</g>
						<g>
							<path class="st24" d="M311.9,120.3l12.8,7.4c0.4,0.2,0.8,0.8,0.8,1.3s-0.3,0.6-0.8,0.4l-12.8-7.4c-0.4-0.2-0.8-0.8-0.8-1.3
								C311.1,120.3,311.4,120.1,311.9,120.3z"/>
							<path class="st38" d="M311.9,120.3l12.8,7.4c0.4,0.2,0.8,0.8,0.8,1.3s-0.3,0.6-0.8,0.4l-12.8-7.4c-0.4-0.2-0.8-0.8-0.8-1.3
								C311.1,120.3,311.4,120.1,311.9,120.3z"/>
						</g>
						<g>
							<path class="st24" d="M306.1,134.4l2.1,1.2c0.4,0.2,0.8,0.8,0.8,1.3c0,0.5-0.3,0.6-0.8,0.4l-2.1-1.2
								c-0.4-0.2-0.8-0.8-0.8-1.3C305.3,134.3,305.7,134.2,306.1,134.4z"/>
							<path class="st36" d="M306.1,134.4l2.1,1.2c0.4,0.2,0.8,0.8,0.8,1.3c0,0.5-0.3,0.6-0.8,0.4l-2.1-1.2
								c-0.4-0.2-0.8-0.8-0.8-1.3C305.3,134.3,305.7,134.2,306.1,134.4z"/>
						</g>
						<g>
							<path class="st24" d="M311.9,137.7l12.8,7.4c0.4,0.2,0.8,0.8,0.8,1.3s-0.3,0.6-0.8,0.4l-12.8-7.4c-0.4-0.2-0.8-0.8-0.8-1.3
								C311.1,137.7,311.4,137.5,311.9,137.7z"/>
							<path class="st38" d="M311.9,137.7l12.8,7.4c0.4,0.2,0.8,0.8,0.8,1.3s-0.3,0.6-0.8,0.4l-12.8-7.4c-0.4-0.2-0.8-0.8-0.8-1.3
								C311.1,137.7,311.4,137.5,311.9,137.7z"/>
						</g>
					</g>
				</g>
			</g>
		</g>
		<g id="Window_4_">
			<g id="XMLID_3556_">
				<g id="XMLID_3571_" class="st39">
					<path class="st23" d="M430.9,155.4v85.4c0,1.1,0.8,2.5,1.8,3.1l49,28.3c0.2,0.1,0.4,0.2,0.6,0.2c0.1,0,0.2,0,0.2,0
						c0.1,0,0.1,0,0.2-0.1c0,0,0.1,0,0.1-0.1c0,0,0.1,0,0.1-0.1c0,0,0.1-0.1,0.1-0.1c0.1-0.1,0.2-0.3,0.3-0.5
						c0.1-0.3,0.2-0.6,0.2-0.9v-84.9c0-1.1-0.8-2.5-1.8-3.1l-49-28.3c-0.5-0.3-0.9-0.3-1.2-0.2c-0.1,0-0.1,0.1-0.2,0.1c0,0,0,0,0,0
						c0,0-0.1,0.1-0.1,0.1c0,0,0,0-0.1,0.1c0,0,0,0.1-0.1,0.1c0,0.1-0.1,0.1-0.1,0.2c0,0,0,0.1,0,0.2c0,0,0,0,0,0c0,0.1,0,0.1,0,0.2
						C430.9,155.3,430.9,155.4,430.9,155.4z"/>
				</g>
				<g id="XMLID_3563_">
					<g id="XMLID_3568_">
						<path class="st24" d="M431.4,154.3c0.3-0.2,0.7-0.1,1.2,0.2l49,28.3c1,0.6,1.8,1.9,1.8,3.1v5.8l2.8-1.6v-5.8
							c0-1.1-0.8-2.5-1.8-3.1l-49-28.3c-0.5-0.3-1-0.3-1.3-0.1C433.9,152.9,431.8,154.1,431.4,154.3z"/>
					</g>
					<path id="XMLID_3567_" class="st24" d="M430.9,155.4c0-1.1,0.8-1.6,1.8-1l49,28.3c1,0.6,1.8,1.9,1.8,3.1l0,5.8l-52.6-30.3
						V155.4z"/>
					<g id="XMLID_3566_" class="st34">
						<path class="st32" d="M432.6,154.4l49,28.3c0.5,0.3,0.9,0.8,1.2,1.3l2.8-1.6c-0.3-0.5-0.8-1-1.2-1.3l-49-28.3
							c-0.5-0.3-1-0.3-1.3-0.1c-0.3,0.2-2.4,1.3-2.7,1.5C431.8,154.1,432.2,154.1,432.6,154.4z"/>
					</g>
					<path id="XMLID_3564_" class="st28" d="M486.3,189.9l0-5.8c0-0.6-0.2-1.2-0.5-1.8l-2.8,1.6c0.3,0.6,0.5,1.2,0.5,1.8v5.8
						L486.3,189.9z"/>
				</g>
				<g id="XMLID_3559_">
					<path id="XMLID_3562_" class="st23" d="M480.9,185.1c0.6,0.3,1,1.3,1,2.1c0,0.9-0.4,1.3-1,1c-0.6-0.3-1-1.3-1-2.1
						C479.9,185.2,480.3,184.7,480.9,185.1z"/>
					<path id="XMLID_3561_" class="st23" d="M477.3,183c0.6,0.3,1,1.3,1,2.1c0,0.9-0.4,1.3-1,1c-0.6-0.3-1-1.3-1-2.1
						C476.3,183.1,476.7,182.7,477.3,183z"/>
					<path id="XMLID_3560_" class="st23" d="M473.7,180.9c0.6,0.3,1,1.3,1,2.1c0,0.9-0.4,1.3-1,1c-0.6-0.3-1-1.3-1-2.1
						C472.7,181,473.1,180.6,473.7,180.9z"/>
				</g>
				<g id="XMLID_3558_" class="st40">
					<path class="st12" d="M482.8,272.2c0.1,0,0.1-0.1,0.2-0.1c0.2-0.1,0.3-0.2,0.5-0.3l0,0c0.1-0.1,0.2-0.1,0.3-0.2c0,0,0,0,0,0
						c0.2-0.1,0.3-0.2,0.5-0.3c0.2-0.1,0.8-0.5,1-0.5c0.1-0.1,0.2-0.1,0.2-0.1c0.1-0.1,0.2-0.1,0.3-0.2c0.1-0.1,0.2-0.2,0.2-0.4
						c0.1-0.3,0.2-0.6,0.2-0.9v-79.2l-2.8,1.6v79.1c0,0.3-0.1,0.6-0.2,0.9c-0.1,0.2-0.2,0.3-0.3,0.5
						C482.9,272.1,482.9,272.1,482.8,272.2C482.8,272.2,482.8,272.2,482.8,272.2z"/>
				</g>
			</g>
			<g id="XMLID_2916_">
				<g id="XMLID_3493_">
					<path id="XMLID_3552_" class="st24" d="M434.9,171c0-0.1,0-0.2,0.1-0.2l1.3-1.2c0,0,0,0,0.1,0c0,0,0,0,0,0c0,0,0.1,0.1,0.1,0.1
						c0,0.1,0,0.1,0,0.2v0.9c0,0.1,0,0.2,0,0.2c0,0,0,0.1-0.1,0.1l-0.7,0.6l0.7,1.4c0,0.1,0.1,0.2,0.1,0.2c0,0.1,0,0.2,0,0.3v0.9
						c0,0.1,0,0.1,0,0.1c0,0-0.1,0-0.1,0c0,0,0,0,0,0c0,0,0,0-0.1-0.1L435,172c-0.1-0.1-0.1-0.2-0.1-0.3V171z"/>
					<path id="XMLID_3548_" class="st24" d="M439.6,169.8c0-0.1,0.1-0.1,0.1-0.1c0,0,0.1,0,0.2,0l0.5,0.3c0,0,0.1,0.1,0.1,0.1
						c0,0.1,0,0.1,0,0.2c0,0,0,0.1,0,0.1l-2.2,6.8c0,0.1,0,0.1-0.1,0.1c0,0-0.1,0-0.2,0l-0.5-0.3c0,0-0.1-0.1-0.1-0.1
						c0-0.1,0-0.1,0-0.2c0,0,0-0.1,0-0.1L439.6,169.8z"/>
					<path id="XMLID_3541_" class="st24" d="M443,176.3c0,0.1,0,0.2-0.1,0.2l-1.3,1.2c0,0,0,0-0.1,0c0,0,0,0,0,0
						c0,0-0.1-0.1-0.1-0.1c0-0.1,0-0.1,0-0.2v-0.9c0-0.1,0-0.2,0-0.2c0,0,0-0.1,0.1-0.1l0.7-0.6l-0.7-1.4c0-0.1-0.1-0.2-0.1-0.2
						c0-0.1,0-0.2,0-0.3v-0.9c0-0.1,0-0.1,0-0.1c0,0,0.1,0,0.1,0c0,0,0,0,0,0c0,0,0,0,0.1,0.1l1.3,2.6c0.1,0.1,0.1,0.2,0.1,0.3
						V176.3z"/>
					<path id="XMLID_3522_" class="st24" d="M446.5,179.8c0,0,0.1,0.1,0.1,0.2c0,0.1,0.1,0.1,0.1,0.2v1c0,0.1,0,0.1-0.1,0.2
						c0,0-0.1,0-0.1,0l-0.6-0.3c0,0-0.1-0.1-0.1-0.2c0-0.1-0.1-0.1-0.1-0.2v-1c0-0.1,0-0.1,0.1-0.2c0,0,0.1,0,0.1,0L446.5,179.8z"/>
					<path id="XMLID_3499_" class="st24" d="M448.5,181c0,0,0.1,0.1,0.1,0.2c0,0.1,0.1,0.1,0.1,0.2v1c0,0.1,0,0.1-0.1,0.2
						c0,0-0.1,0-0.1,0l-0.6-0.3c0,0-0.1-0.1-0.1-0.2c0-0.1-0.1-0.1-0.1-0.2v-1c0-0.1,0-0.1,0.1-0.2c0,0,0.1,0,0.1,0L448.5,181z"/>
					<path id="XMLID_3497_" class="st24" d="M450.6,182.1c0,0,0.1,0.1,0.1,0.2c0,0.1,0.1,0.1,0.1,0.2v1c0,0.1,0,0.1-0.1,0.2
						c0,0-0.1,0-0.1,0l-0.6-0.3c0,0-0.1-0.1-0.1-0.2c0-0.1-0.1-0.1-0.1-0.2v-1c0-0.1,0-0.1,0.1-0.2c0,0,0.1,0,0.1,0L450.6,182.1z"/>
				</g>
				<path id="XMLID_3489_" class="st24" d="M435.5,178.8l29.5,17c0.3,0.2,0.6,0.7,0.6,1c0,0.4-0.3,0.5-0.6,0.3l-29.5-17
					c-0.3-0.2-0.6-0.7-0.6-1C434.8,178.7,435.1,178.6,435.5,178.8z"/>
				<path id="XMLID_3488_" class="st22" d="M444.9,200.6l29.5,17c0.3,0.2,0.6,0.7,0.6,1c0,0.4-0.3,0.5-0.6,0.3l-29.5-17
					c-0.3-0.2-0.6-0.7-0.6-1C444.3,200.5,444.6,200.4,444.9,200.6z"/>
				<path id="XMLID_3480_" class="st22" d="M444.9,211.5l14.1,8.1c0.3,0.2,0.6,0.7,0.6,1c0,0.4-0.3,0.5-0.6,0.3l-14.1-8.1
					c-0.3-0.2-0.6-0.7-0.6-1C444.3,211.5,444.6,211.3,444.9,211.5z"/>
				<path id="XMLID_3458_" class="st24" d="M467.4,197.2l11.7,6.8c0.3,0.2,0.6,0.7,0.6,1c0,0.4-0.3,0.5-0.6,0.3l-11.7-6.8
					c-0.3-0.2-0.6-0.7-0.6-1S467,197,467.4,197.2z"/>
				<path id="XMLID_3455_" class="st24" d="M435.5,238.8l29.5,17c0.3,0.2,0.6,0.7,0.6,1c0,0.4-0.3,0.5-0.6,0.3l-29.5-17
					c-0.3-0.2-0.6-0.7-0.6-1C434.8,238.7,435.1,238.6,435.5,238.8z"/>
				<path id="XMLID_3452_" class="st24" d="M467.4,257.2l11.7,6.8c0.3,0.2,0.6,0.7,0.6,1c0,0.4-0.3,0.5-0.6,0.3l-11.7-6.8
					c-0.3-0.2-0.6-0.7-0.6-1C466.8,257.2,467,257,467.4,257.2z"/>
				<path id="XMLID_3448_" class="st24" d="M467.4,240.9l11.7,6.8c0.3,0.2,0.6,0.7,0.6,1c0,0.4-0.3,0.5-0.6,0.3l-11.7-6.8
					c-0.3-0.2-0.6-0.7-0.6-1C466.8,240.8,467,240.7,467.4,240.9z"/>
				<path id="XMLID_3288_" class="st24" d="M467.4,246.3l11.7,6.8c0.3,0.2,0.6,0.7,0.6,1c0,0.4-0.3,0.5-0.6,0.3l-11.7-6.8
					c-0.3-0.2-0.6-0.7-0.6-1C466.8,246.3,467,246.1,467.4,246.3z"/>
				<path id="XMLID_3285_" class="st24" d="M457.4,235.1l6.6,3.8c0.3,0.2,0.6,0.7,0.6,1c0,0.4-0.3,0.5-0.6,0.3l-6.6-3.8
					c-0.3-0.2-0.6-0.7-0.6-1C456.7,235,457,234.9,457.4,235.1z"/>
				<g id="XMLID_3242_">
					<path id="XMLID_3244_" class="st24" d="M435.5,184.2l17.2,9.9c0.3,0.2,0.6,0.7,0.6,1c0,0.4-0.3,0.5-0.6,0.3l-17.2-9.9
						c-0.3-0.2-0.6-0.7-0.6-1C434.8,184.2,435.1,184,435.5,184.2z"/>
					<path id="XMLID_3243_" class="st36" d="M435.5,184.2l17.2,9.9c0.3,0.2,0.6,0.7,0.6,1c0,0.4-0.3,0.5-0.6,0.3l-17.2-9.9
						c-0.3-0.2-0.6-0.7-0.6-1C434.8,184.2,435.1,184,435.5,184.2z"/>
				</g>
				<g id="XMLID_3239_">
					<path id="XMLID_3241_" class="st24" d="M435.5,189.7l5.8,3.4c0.3,0.2,0.6,0.7,0.6,1c0,0.4-0.3,0.5-0.6,0.3l-5.8-3.4
						c-0.3-0.2-0.6-0.7-0.6-1C434.8,189.6,435.1,189.5,435.5,189.7z"/>
					<path id="XMLID_3240_" class="st36" d="M435.5,189.7l5.8,3.4c0.3,0.2,0.6,0.7,0.6,1c0,0.4-0.3,0.5-0.6,0.3l-5.8-3.4
						c-0.3-0.2-0.6-0.7-0.6-1C434.8,189.6,435.1,189.5,435.5,189.7z"/>
				</g>
				<g id="XMLID_3236_">
					<path id="XMLID_3238_" class="st24" d="M435.5,195.1l5.8,3.4c0.3,0.2,0.6,0.7,0.6,1s-0.3,0.5-0.6,0.3l-5.8-3.4
						c-0.3-0.2-0.6-0.7-0.6-1C434.8,195.1,435.1,194.9,435.5,195.1z"/>
					<path id="XMLID_3237_" class="st36" d="M435.5,195.1l5.8,3.4c0.3,0.2,0.6,0.7,0.6,1s-0.3,0.5-0.6,0.3l-5.8-3.4
						c-0.3-0.2-0.6-0.7-0.6-1C434.8,195.1,435.1,194.9,435.5,195.1z"/>
				</g>
				<g id="XMLID_3234_">
					<path id="XMLID_3235_" class="st24" d="M435.5,200.6l5.8,3.4c0.3,0.2,0.6,0.7,0.6,1c0,0.4-0.3,0.5-0.6,0.3l-5.8-3.4
						c-0.3-0.2-0.6-0.7-0.6-1C434.8,200.5,435.1,200.4,435.5,200.6z"/>
				</g>
				<path id="XMLID_3233_" class="st36" d="M435.5,200.6l5.8,3.4c0.3,0.2,0.6,0.7,0.6,1c0,0.4-0.3,0.5-0.6,0.3l-5.8-3.4
					c-0.3-0.2-0.6-0.7-0.6-1C434.8,200.5,435.1,200.4,435.5,200.6z"/>
				<path id="XMLID_3232_" class="st41" d="M444.9,206.1l17.2,9.9c0.3,0.2,0.6,0.7,0.6,1c0,0.4-0.3,0.5-0.6,0.3l-17.2-9.9
					c-0.3-0.2-0.6-0.7-0.6-1S444.6,205.9,444.9,206.1z"/>
				<path id="XMLID_3228_" class="st41" d="M464.6,217.4l7.5,4.3c0.3,0.2,0.6,0.7,0.6,1c0,0.4-0.3,0.5-0.6,0.3l-7.5-4.3
					c-0.3-0.2-0.6-0.7-0.6-1C463.9,217.3,464.2,217.2,464.6,217.4z"/>
				<path id="XMLID_3205_" class="st36" d="M444.9,206.1l17.2,9.9c0.3,0.2,0.6,0.7,0.6,1c0,0.4-0.3,0.5-0.6,0.3l-17.2-9.9
					c-0.3-0.2-0.6-0.7-0.6-1S444.6,205.9,444.9,206.1z"/>
				<path id="XMLID_3204_" class="st36" d="M464.6,217.4l7.5,4.3c0.3,0.2,0.6,0.7,0.6,1c0,0.4-0.3,0.5-0.6,0.3l-7.5-4.3
					c-0.3-0.2-0.6-0.7-0.6-1C463.9,217.3,464.2,217.2,464.6,217.4z"/>
				<g id="XMLID_3201_">
					<path id="XMLID_3203_" class="st24" d="M435.5,206.1l5.8,3.4c0.3,0.2,0.6,0.7,0.6,1c0,0.4-0.3,0.5-0.6,0.3l-5.8-3.4
						c-0.3-0.2-0.6-0.7-0.6-1C434.8,206,435.1,205.9,435.5,206.1z"/>
					<path id="XMLID_3202_" class="st36" d="M435.5,206.1l5.8,3.4c0.3,0.2,0.6,0.7,0.6,1c0,0.4-0.3,0.5-0.6,0.3l-5.8-3.4
						c-0.3-0.2-0.6-0.7-0.6-1C434.8,206,435.1,205.9,435.5,206.1z"/>
				</g>
				<g id="XMLID_3198_">
					<path id="XMLID_3200_" class="st24" d="M455.1,195.6l7.5,4.3c0.3,0.2,0.6,0.7,0.6,1c0,0.4-0.3,0.5-0.6,0.3l-7.5-4.3
						c-0.3-0.2-0.6-0.7-0.6-1C454.5,195.5,454.8,195.4,455.1,195.6z"/>
					<path id="XMLID_3199_" class="st36" d="M455.1,195.6l7.5,4.3c0.3,0.2,0.6,0.7,0.6,1c0,0.4-0.3,0.5-0.6,0.3l-7.5-4.3
						c-0.3-0.2-0.6-0.7-0.6-1C454.5,195.5,454.8,195.4,455.1,195.6z"/>
				</g>
				<g id="XMLID_3196_">
					<path id="XMLID_3197_" class="st4" d="M452,221.1l17.2,9.9c0.3,0.2,0.6,0.7,0.6,1c0,0.4-0.3,0.5-0.6,0.3l-17.2-9.9
						c-0.3-0.2-0.6-0.7-0.6-1S451.7,220.9,452,221.1z"/>
				</g>
				<g id="XMLID_3194_">
					<path id="XMLID_3195_" class="st4" d="M461.9,232.3l17.2,9.9c0.3,0.2,0.6,0.7,0.6,1s-0.3,0.5-0.6,0.3l-17.2-9.9
						c-0.3-0.2-0.6-0.7-0.6-1C461.3,232.2,461.6,232.1,461.9,232.3z"/>
				</g>
				<g id="XMLID_3094_">
					<path id="XMLID_3193_" class="st4" d="M471.7,232.4l7.5,4.3c0.3,0.2,0.6,0.7,0.6,1c0,0.4-0.3,0.5-0.6,0.3l-7.5-4.3
						c-0.3-0.2-0.6-0.7-0.6-1C471,232.3,471.3,232.2,471.7,232.4z"/>
				</g>
				<g id="XMLID_2998_">
					<path id="XMLID_2999_" class="st22" d="M471.7,254l7.5,4.3c0.3,0.2,0.6,0.7,0.6,1c0,0.4-0.3,0.5-0.6,0.3l-7.5-4.3
						c-0.3-0.2-0.6-0.7-0.6-1C471,253.9,471.3,253.8,471.7,254z"/>
				</g>
				<g id="XMLID_2995_">
					<path id="XMLID_2997_" class="st24" d="M444.9,195.1l17.2,9.9c0.3,0.2,0.6,0.7,0.6,1c0,0.4-0.3,0.5-0.6,0.3l-17.2-9.9
						c-0.3-0.2-0.6-0.7-0.6-1C444.3,195.1,444.6,194.9,444.9,195.1z"/>
					<path id="XMLID_2996_" class="st36" d="M444.9,195.1l17.2,9.9c0.3,0.2,0.6,0.7,0.6,1c0,0.4-0.3,0.5-0.6,0.3l-17.2-9.9
						c-0.3-0.2-0.6-0.7-0.6-1C444.3,195.1,444.6,194.9,444.9,195.1z"/>
				</g>
				<g id="XMLID_2918_">
					<path id="XMLID_2922_" class="st24" d="M464.6,206.5l7.5,4.3c0.3,0.2,0.6,0.7,0.6,1c0,0.4-0.3,0.5-0.6,0.3l-7.5-4.3
						c-0.3-0.2-0.6-0.7-0.6-1C463.9,206.4,464.2,206.3,464.6,206.5z"/>
					<path id="XMLID_2919_" class="st36" d="M464.6,206.5l7.5,4.3c0.3,0.2,0.6,0.7,0.6,1c0,0.4-0.3,0.5-0.6,0.3l-7.5-4.3
						c-0.3-0.2-0.6-0.7-0.6-1C463.9,206.4,464.2,206.3,464.6,206.5z"/>
				</g>
			</g>
		</g>
		<g id="Mouse_2_">
			<path class="st28" d="M347.4,269l10.5,6.1c3.3,1.9,8.5,1.6,11.6-0.6l17.4-12.7c3.1-2.3,2.9-5.6-0.4-7.6l-5.3-3.1
				c-3.3-1.9-8.8-2.1-12.2-0.4l-21.5,11.6C344.2,264.1,344.1,267.1,347.4,269z"/>
			<path class="st12" d="M387.2,256.3l-12,9.4l-8.9,6.9c-0.9,0.4-1.8,0.6-2.8,0.7c-1.5,0.1-3-0.2-4.2-0.9l-9.4-5.4c0,0,0,0,0,0
				c0,0,0,0-0.1,0c-3.3-1.9-4.1-6.4-1.9-9.5c0.1-0.1,0.2-0.3,0.3-0.4c1.8-2.4,4.5-4.2,7.6-4.8l4.8-1c7.7-1.6,14.1-2.3,14.8-1.8
				L387.2,256.3C387.2,256.2,387.2,256.3,387.2,256.3z"/>
			<path class="st24" d="M380.5,261.5l0.7-0.5l-10.6-6.1l9.3-2.9c-0.3-0.2-0.6-0.4-0.9-0.5l-9.3,2.9l-6.3-3.6
				c-0.4,0.1-0.8,0.1-1.2,0.2L380.5,261.5z"/>
			<path class="st29" d="M367.4,272C367.4,272,367.4,272,367.4,272C367.4,272,367.4,272,367.4,272l8.5-6.2l11.4-8.2v-1.3
				c0,0,0-0.1-0.1-0.1c0,0,0,0-0.1,0c-0.8-0.3-5.8,1.2-11.8,3.6l-4,1.6c-1.2,0.5-2.4,1.2-3.4,2c-2.8,2.3-4.6,5.9-4.6,9.7v0.2
				c1-0.1,2-0.3,2.8-0.7L367.4,272z"/>
		</g>
	</g>
	<g id="Pot_1_">
		<g id="XMLID_3653_">
			<g id="XMLID_3654_">
				<g id="XMLID_3655_">
					<g id="XMLID_3717_">
						<path id="XMLID_3718_" class="st24" d="M388.3,440.7c-11.6-12-18.4-60.7-7.1-70.2h57.6c11.3,9.5,4.5,58.2-7.1,70.2
							c-0.1,0.1-0.2,0.2-0.3,0.3c-0.1,0.1-0.3,0.3-0.4,0.4c-0.3,0.3-0.7,0.6-1,0.9c-0.1,0.1-0.2,0.1-0.3,0.2
							c-0.3,0.2-0.6,0.5-0.9,0.7c-0.5,0.4-1,0.7-1.5,1c-9.5,5.6-25,5.6-34.6,0l0,0l0,0c-0.5-0.3-1-0.6-1.5-1
							c-0.3-0.2-0.5-0.4-0.8-0.6c-0.1-0.1-0.2-0.2-0.3-0.3c-0.4-0.3-0.7-0.6-1-0.9c-0.2-0.1-0.3-0.3-0.5-0.5
							C388.5,440.9,388.4,440.8,388.3,440.7z"/>
					</g>
					<g id="XMLID_3668_" class="st34">
						<g>
							<path id="XMLID_22_" class="st32" d="M388.3,440.7c-11.6-12-18.4-60.7-7.1-70.2h57.6c11.3,9.5,4.5,58.2-7.1,70.2
								c-0.1,0.1-0.2,0.2-0.3,0.3c-0.1,0.1-0.3,0.3-0.4,0.4c-0.3,0.3-0.7,0.6-1,0.9c-0.1,0.1-0.2,0.1-0.3,0.2
								c-0.3,0.2-0.6,0.5-0.9,0.7c-0.5,0.4-1,0.7-1.5,1c-9.5,5.6-25,5.6-34.6,0l0,0l0,0c-0.5-0.3-1-0.6-1.5-1
								c-0.3-0.2-0.5-0.4-0.8-0.6c-0.1-0.1-0.2-0.2-0.3-0.3c-0.4-0.3-0.7-0.6-1-0.9c-0.2-0.1-0.3-0.3-0.5-0.5
								C388.5,440.9,388.4,440.8,388.3,440.7z"/>
						</g>
					</g>
					<g id="XMLID_3666_">
						<path id="XMLID_3667_" class="st24" d="M433.8,366.7c13.1,7.7,13.1,20.1,0,27.8c-13.1,7.7-34.4,7.7-47.6,0
							c-13.1-7.7-13.1-20.1,0-27.8C399.3,359,420.6,359,433.8,366.7z"/>
					</g>
					<g id="XMLID_3664_" class="st42">
						<g>
							<path id="XMLID_20_" class="st32" d="M433.8,366.7c13.1,7.7,13.1,20.1,0,27.8c-13.1,7.7-34.4,7.7-47.6,0
								c-13.1-7.7-13.1-20.1,0-27.8C399.3,359,420.6,359,433.8,366.7z"/>
						</g>
					</g>
					<g id="XMLID_3662_">
						<path id="XMLID_3663_" class="st24" d="M427.4,370.4c9.6,5.6,9.6,14.8,0,20.4c-9.6,5.6-25.3,5.6-34.9,0
							c-9.6-5.6-9.6-14.8,0-20.4C402.2,364.8,417.8,364.8,427.4,370.4z"/>
					</g>
					<g id="XMLID_3660_" class="st43">
						<g>
							<path id="XMLID_73_" class="st0" d="M427.4,370.4c9.6,5.6,9.6,14.8,0,20.4c-9.6,5.6-25.3,5.6-34.9,0
								c-9.6-5.6-9.6-14.8,0-20.4C402.2,364.8,417.8,364.8,427.4,370.4z"/>
						</g>
					</g>
					<g id="XMLID_3656_">
						<path id="XMLID_3659_" class="st21" d="M392.5,380.1c9.6-5.6,25.3-5.6,34.9,0c2.7,1.6,4.6,3.4,5.8,5.4c-1.2,2-3.1,3.8-5.8,5.4
							c-9.6,5.6-25.3,5.6-34.9,0c-2.7-1.6-4.6-3.4-5.8-5.4C387.9,383.5,389.8,381.6,392.5,380.1z"/>
					</g>
				</g>
			</g>
		</g>
		<g id="Plants_20_">
			<g id="XMLID_3595_">
				<g id="XMLID_3645_">
					<path id="XMLID_3652_" class="st24" d="M405.3,355.5c-0.6-1.3-1.2-2.7-1.5-4.2c-0.6-3.5,0.2-7.5,3.1-9.7
						c1.1-0.9,2.6-1.5,3.1-2.8c0.3-0.7,0.2-1.5,0-2.3c-0.5-3-1.5-6.1-0.7-9c0.8-2.7,3-4.8,5.6-6c2.5-1.2,5.4-1.7,8.1-2.1
						c1.5-0.2,3-0.5,4.3-1.2c1.6-0.9,2.1-2.5,3.1-3.9c1.1-1.5,2.5-3,3.9-4.2c2.9-2.6,6.6-4.8,10.7-4.6c8.5,0.4,8.2,7.7,5.8,13.2
						c-2.4,5.5-3.1,7.3,2.2,13.1c5.3,5.8,5.3,12.8-1,16.8c-6.3,4-10.4,4.5-7.9,12.1c2.2,6.8,3.6,12.7-2.7,20
						c-4.1,4.7-9.7,8.1-16.6,7.8c-2-0.1-6.3-1-8.2-1.9c-1.9-1-0.6-2.4-1.3-4.3c-1.4-4.1-2.8-8.1-4.2-12.2c-1.1-3.2-1.9-6.6-3.3-9.6
						C407,358.6,406.1,357.1,405.3,355.5z"/>
				</g>
				<g id="XMLID_3643_" class="st44">
					<g>
						<path id="XMLID_72_" class="st0" d="M405.3,355.5c-0.6-1.3-1.2-2.7-1.5-4.2c-0.6-3.5,0.2-7.5,3.1-9.7c1.1-0.9,2.6-1.5,3.1-2.8
							c0.3-0.7,0.2-1.5,0-2.3c-0.5-3-1.5-6.1-0.7-9c0.8-2.7,3-4.8,5.6-6c2.5-1.2,5.4-1.7,8.1-2.1c1.5-0.2,3-0.5,4.3-1.2
							c1.6-0.9,2.1-2.5,3.1-3.9c1.1-1.5,2.5-3,3.9-4.2c2.9-2.6,6.6-4.8,10.7-4.6c8.5,0.4,8.2,7.7,5.8,13.2
							c-2.4,5.5-3.1,7.3,2.2,13.1c5.3,5.8,5.3,12.8-1,16.8c-6.3,4-10.4,4.5-7.9,12.1c2.2,6.8,3.6,12.7-2.7,20
							c-4.1,4.7-9.7,8.1-16.6,7.8c-2-0.1-6.3-1-8.2-1.9c-1.9-1-0.6-2.4-1.3-4.3c-1.4-4.1-2.8-8.1-4.2-12.2c-1.1-3.2-1.9-6.6-3.3-9.6
							C407,358.6,406.1,357.1,405.3,355.5z"/>
					</g>
				</g>
				<g id="XMLID_3641_">
					<g>
						<path id="XMLID_18_" class="st32" d="M416.8,386.4c0.2-0.1,0.4-0.3,0.4-0.6c-0.4-41.8,22.7-66.8,22.9-67
							c0.2-0.3,0.2-0.7,0-0.9c-0.2-0.2-0.6-0.2-0.9,0c-0.2,0.3-23.6,25.6-23.3,67.9c0,0.3,0.3,0.6,0.6,0.6
							C416.6,386.5,416.7,386.5,416.8,386.4z"/>
					</g>
				</g>
				<g id="XMLID_3598_">
					<g>
						<path id="XMLID_16_" class="st32" d="M423.5,347.5c0,0,0.1,0,0.1-0.1c7.5-4.7,20.9-8.2,21-8.3c0.3-0.1,0.5-0.4,0.4-0.8
							c-0.1-0.3-0.4-0.5-0.8-0.5c-0.6,0.1-13.7,3.6-21.4,8.4c-0.3,0.2-0.4,0.6-0.2,0.9C422.9,347.5,423.2,347.6,423.5,347.5z"/>
					</g>
				</g>
				<g id="XMLID_3596_">
					<g>
						<path id="XMLID_14_" class="st32" d="M425.8,341.8C425.8,341.8,425.8,341.8,425.8,341.8c0.4-0.1,0.5-0.5,0.4-0.8
							c-2.6-6.5-6.7-11.4-6.9-11.6c-0.2-0.3-0.6-0.3-0.9-0.1c-0.3,0.2-0.3,0.6-0.1,0.9c0,0,4.2,5,6.7,11.3
							C425.1,341.8,425.5,341.9,425.8,341.8z"/>
					</g>
				</g>
			</g>
			<g id="XMLID_3098_">
				<path id="XMLID_3594_" class="st24" d="M410.9,391c0,0-7.8,3-18.4,0.7c-10.5-2.3-17-12.1-17-12.1s11.4-4.6,18-5
					c0,0-10.3-1.8-20,0.4c0,0-6.1-2.3-4.9-12.6c0,0,5.7-4.2,19-2.6c0,0-6.6-4.7-18.2-6.1c-0.9,0,0.3-13.4,1.4-19.4
					c1.1-6,3.3-5.1,8-4.5c4.7,0.5,18.8,3.7,20.6,7.2c1.8,3.4,0,12.2,0,12.2s3.9-4.8,3.9-11.5c0,0,5.3,1.9,8.1,4.4
					c2.8,2.5,4.2,4.5,5.1,6.3c-0.7,4.7-2.9,11.9-6,15.9c0,0,7-4.5,8.6-12.8c0,0,5.6,7.1,5.5,16.4C424.6,378.4,420,386.2,410.9,391z"
					/>
				<path id="XMLID_3719_" class="st45" d="M410.9,391c0,0-7.8,3-18.4,0.7c-10.5-2.3-17-12.1-17-12.1s11.4-4.6,18-5
					c0,0-10.3-1.8-20,0.4c0,0-6.1-2.3-4.9-12.6c0,0,5.7-4.2,19-2.6c0,0-6.6-4.7-18.2-6.1c-0.9,0,0.3-13.4,1.4-19.4
					c1.1-6,3.3-5.1,8-4.5c4.7,0.5,18.8,3.7,20.6,7.2c1.8,3.4,0,12.2,0,12.2s3.9-4.8,3.9-11.5c0,0,5.3,1.9,8.1,4.4
					c2.8,2.5,4.2,4.5,5.1,6.3c-0.7,4.7-2.9,11.9-6,15.9c0,0,7-4.5,8.6-12.8c0,0,5.6,7.1,5.5,16.4C424.6,378.4,420,386.2,410.9,391z"
					/>
				<g id="XMLID_3578_">
					<g>
						<path id="XMLID_13_" class="st32" d="M412.3,390c-0.2-0.1-0.4-0.3-0.4-0.5c-1.6-20-23.9-51.1-33.8-57.4
							c-0.3-0.2-0.4-0.6-0.2-0.8c0.2-0.3,0.5-0.4,0.8-0.2c10,6.4,32.7,38,34.3,58.3c0,0.3-0.2,0.6-0.5,0.7
							C412.5,390.1,412.4,390.1,412.3,390z"/>
					</g>
				</g>
			</g>
		</g>
	</g>
	<g id="Character_1_">
		<g id="XMLID_179_">
			<g id="XMLID_183_">
				<g id="XMLID_191_">
					<path id="XMLID_192_" class="st46" d="M210.4,377.6c0-0.2-3.6-13.2-3.6-13.2s1.2,1.2,8.7-0.8c3.8-1,8.1-3.4,8.1-3.4l2.1,9.5
						c2,3.6,8.6,2,15.9,1.1c1.2-0.1,2.5-0.3,3.7-0.6l0.1,0c3.9-0.2,7.8,2.1,3.8,5.5c-4.1,3.3-10.8,4.6-17,5.7
						C224.7,382.8,211.7,384.9,210.4,377.6z"/>
				</g>
				<g id="XMLID_184_">
					<path id="XMLID_190_" class="st29" d="M262.4,376.4c0,0,0.8,1.5,0.5,4c-0.1,1.4-3.7,6.3-10,9.3c-6.3,3-14.1,3.2-17.8,4.2
						c-3.7,1.1-7,3.1-11.3,4.2c-4.4,1.1-8.6,1.6-12.9-1.2c-0.8-1.2-1.7-4.1-1.4-4.3C210.2,391.9,262.4,376.4,262.4,376.4z"/>
					<path id="XMLID_189_" class="st24" d="M226.8,370.9c2.8,1.9,8.5,0.6,14.7-0.1c5.8-0.7,12.4-2.7,16.4-1.3
						c4,1.4,7.3,6.1,1.9,12.1c-1.6,1.7-4.8,4.8-7.5,5.7c-6.7,2.4-12.7,2.6-17,3.6c-5.6,1.4-8.6,3.9-13.8,4.5
						c-6.7,0.8-10.9-0.9-12.1-2.7c-1.2-1.8-2.2-16.2,0.6-15.9c0,0,1.2,4.7,12.1,0.1C227.1,374.9,227,372,226.8,370.9z"/>
					<path id="XMLID_188_" class="st27" d="M226.8,370.9c2.8,1.9,8.5,0.6,14.7-0.1c5.8-0.7,12.4-2.7,16.4-1.3
						c4,1.4,7.3,6.1,1.9,12.1c-1.6,1.7-4.8,4.8-7.5,5.7c-6.7,2.4-12.7,2.6-17,3.6c-5.6,1.4-8.6,3.9-13.8,4.5
						c-6.7,0.8-10.9-0.9-12.1-2.7c-1.2-1.8-2.2-16.2,0.6-15.9c0,0,1.2,4.7,12.1,0.1C227.1,374.9,227,372,226.8,370.9z"/>
					<path id="XMLID_187_" class="st47" d="M245.4,378.6c0,0-0.6-6.1-5.1-7.7c0,0-1.4-0.7-2.5,0.3c0,0,4.2,0.6,5.5,7.7
						c0,0,0.2,0.5,1.1,0.3C244.8,379.3,245.4,379.1,245.4,378.6z"/>
					<path id="XMLID_186_" class="st47" d="M234,371.7c0,0,0-0.2,1.1-0.4c0.8-0.1,1.2,0.1,1.2,0.1s3.4,1.5,4,7.8c0,0,0,0.8-1,1
						c-1,0.2-1.2-0.6-1.2-0.6S237.3,373,234,371.7z"/>
					<path id="XMLID_185_" class="st47" d="M230.4,371.9c0,0,0.2-0.4,1-0.4c1,0,1.2,0.4,1.2,0.4s2.4,2.4,2.4,7.8c0,0,0.1,0.9-1.2,1
						c-1.3,0.1-1.1-0.9-1.1-0.9S232.3,372.9,230.4,371.9z"/>
				</g>
			</g>
			<g id="XMLID_180_">
				<g>
					<g id="XMLID_63_">
						<path id="XMLID_64_" class="st12" d="M205.7,289.4c5.5,16.5,20,73.2,20,73.2s-9.5,8.5-19.7,4.6l-24.4-70.6L205.7,289.4z"/>
					</g>
				</g>
			</g>
		</g>
		<g id="XMLID_166_">
			<g id="XMLID_169_">
				<g id="XMLID_177_">
					<path id="XMLID_178_" class="st46" d="M248,395.9c-1.1-1.7-5.3-13.2-5.3-13.2s4.4,2.5,11.9,0.7c3.8-0.9,7.4-5.1,7.4-5.1
						l3.2,11.1c1.9,3.7,8.1,2.5,15.3,1.8c1.2-0.1,2.5-0.3,3.7-0.5l0.1,0c3.9-0.1,7.8,2.3,3.6,5.6c-4.1,3.2-10.9,4.3-17.1,5.3
						C263.4,402.8,252.1,402.1,248,395.9z"/>
				</g>
				<g id="XMLID_170_">
					<path id="XMLID_176_" class="st29" d="M304.3,395.5c0,0,0.8,1.6,0.5,4.3c-0.2,1.5-4.2,6.7-11,9.8c-6.8,3.1-15.2,3.1-19.2,4.1
						c-3.9,1-7.6,3.2-12.2,4.2c-4.8,1-9.2,1.5-13.8-1.7c-0.8-1.3-1.7-4.4-1.4-4.7C247.9,410.7,304.3,395.5,304.3,395.5z"/>
					<path id="XMLID_175_" class="st24" d="M266.4,388.6c0.4,0.3,0.9,0.6,1.4,0.9c0.5,0.3,1,0.2,1.5,0.3c1.2,0.1,2.4,0.2,3.7,0.1
						c3.1-0.2,6.1-0.6,9.2-0.9c6.3-0.6,13.4-2.6,17.7-1c4.2,1.6,8.1,6.7,2.2,13c-1.7,1.8-5.2,4.9-7.9,6c-7,2.9-14.3,2.4-19,3.4
						c-6,1.3-9.4,3.9-15,4.4c-7.2,0.7-11.7-1.3-12.9-3.3c-0.7-1.1,0.1-6.7-0.8-11.1c-0.8-3.8-0.6-6.4,0.8-6.2
						c0.2,0.5,0.7,0.9,1.1,1.3c0.4,0.5,1,1,1.6,1.3c0.8,0.4,1.8,0.7,2.7,0.9c1.6,0.4,3.3,0.8,5,0.7c0.5,0,1-0.1,1.4-0.4
						c0.5-0.4,0.7-1.1,0.8-1.7c0.1-0.6,0.2-1.1,0.4-1.7c0.1-0.3,0.1-0.6,0.3-0.9c0.2-0.3,0.5-0.5,0.9-0.7c1-0.6,2.1-1.1,2.7-2.1
						c0.5-0.8,0.7-1.7,0.8-2.6c0-0.2,0.1-0.3,0.2-0.4c0.2-0.2,0.5,0,0.7,0.1C265.9,388.2,266.1,388.4,266.4,388.6z"/>
					<path id="XMLID_174_" class="st27" d="M266.4,388.6c0.4,0.3,0.9,0.6,1.4,0.9c0.5,0.3,1,0.2,1.5,0.3c1.2,0.1,2.4,0.2,3.7,0.1
						c3.1-0.2,6.1-0.6,9.2-0.9c6.3-0.6,13.4-2.6,17.7-1c4.2,1.6,8.1,6.7,2.2,13c-1.7,1.8-5.2,4.9-7.9,6c-7,2.9-14.3,2.4-19,3.4
						c-6,1.3-9.4,3.9-15,4.4c-7.2,0.7-11.7-1.3-12.9-3.3c-0.7-1.1,0.1-6.7-0.8-11.1c-0.8-3.8-0.6-6.4,0.8-6.2
						c0.2,0.5,0.7,0.9,1.1,1.3c0.4,0.5,1,1,1.6,1.3c0.8,0.4,1.8,0.7,2.7,0.9c1.6,0.4,3.3,0.8,5,0.7c0.5,0,1-0.1,1.4-0.4
						c0.5-0.4,0.7-1.1,0.8-1.7c0.1-0.6,0.2-1.1,0.4-1.7c0.1-0.3,0.1-0.6,0.3-0.9c0.2-0.3,0.5-0.5,0.9-0.7c1-0.6,2.1-1.1,2.7-2.1
						c0.5-0.8,0.7-1.7,0.8-2.6c0-0.2,0.1-0.3,0.2-0.4c0.2-0.2,0.5,0,0.7,0.1C265.9,388.2,266.1,388.4,266.4,388.6z"/>
					<path id="XMLID_173_" class="st47" d="M286,397.5c0,0-0.5-6.6-5.3-8.4c0,0-1.5-0.8-2.7,0.3c0,0,4.5,0.8,5.7,8.5
						c0,0,0.2,0.5,1.2,0.4C285.3,398.1,286.1,398,286,397.5z"/>
					<path id="XMLID_172_" class="st47" d="M273.9,389.8c0,0,0-0.2,1.1-0.4c0.8-0.1,1.3,0.2,1.3,0.2s3.6,1.6,4.1,8.5
						c0,0,0,0.8-1.1,1c-1.1,0.2-1.3-0.7-1.3-0.7S277.5,391.1,273.9,389.8z"/>
					<path id="XMLID_171_" class="st47" d="M270.1,389.8c0,0,0.2-0.4,1.1-0.4c1.1,0,1.3,0.5,1.3,0.5s2.5,2.7,2.4,8.4
						c0,0,0.1,1-1.3,1c-1.3,0.1-1.1-1-1.1-1S272.1,391,270.1,389.8z"/>
				</g>
			</g>
			<g id="XMLID_167_">
				<path id="XMLID_168_" class="st23" d="M244.3,308.9c4.3,13.3,15.3,51,20.4,70.5c0,0-9,8.1-20.7,7.4l-28-72.7l11.2-6.9
					L244.3,308.9z"/>
			</g>
		</g>
		<g id="XMLID_144_">
			<g id="XMLID_164_">
				<path id="XMLID_165_" class="st23" d="M151.9,490.4c1,0,1.8-0.8,1.8-1.8V371.7c0-1-0.8-1.8-1.8-1.8c-1,0-1.8,0.8-1.8,1.8v116.9
					C150.1,489.6,150.9,490.4,151.9,490.4z"/>
			</g>
			<g id="XMLID_162_">
				<path id="XMLID_163_" class="st23" d="M79.6,447.9c0.7,0,1.4-0.4,1.7-1.2l35.8-90.7c0.4-0.9-0.1-2-1-2.4c-0.9-0.4-2,0.1-2.4,1
					l-35.8,90.7c-0.4,0.9,0.1,2,1,2.4C79.2,447.9,79.4,447.9,79.6,447.9z"/>
			</g>
			<g id="XMLID_160_">
				<path id="XMLID_161_" class="st23" d="M83.9,437c0.5,0,1-0.2,1.3-0.6l66.7-70.6l66.6,70.3c0.7,0.7,1.8,0.8,2.6,0.1
					c0.7-0.7,0.8-1.8,0.1-2.6l-67.9-71.7c-0.3-0.4-0.8-0.6-1.3-0.6c0,0,0,0,0,0c-0.5,0-1,0.2-1.3,0.6l-68,72
					c-0.7,0.7-0.7,1.9,0.1,2.6C83,436.8,83.5,437,83.9,437z"/>
			</g>
			<g id="XMLID_158_">
				<path id="XMLID_159_" class="st23" d="M224.3,447.9c0.2,0,0.4,0,0.7-0.1c0.9-0.4,1.4-1.4,1-2.4l-35.8-90.7
					c-0.4-0.9-1.4-1.4-2.4-1c-0.9,0.4-1.4,1.4-1,2.4l35.8,90.7C222.9,447.5,223.5,447.9,224.3,447.9z"/>
			</g>
			<g id="XMLID_156_">
				<path id="XMLID_157_" class="st24" d="M225.1,331.6c1.3-7.3-4.7-13.1-15.9-20.6c-11.2-7.6-25.6-15.1-32.6-18.3
					c-9.4-4.3-19-3.9-31.1,2.3c-16.7,8.6-67.1,39.1-67.1,39.1s75.2,42.5,89.7,40.6c14.5-1.9,50.7-25.4,53.5-33.7
					C224.7,332.7,225.1,331.6,225.1,331.6z"/>
			</g>
			<g id="XMLID_154_" class="st48">
				<g>
					<path id="XMLID_66_" class="st0" d="M225.1,331.6c1.3-7.3-4.7-13.1-15.9-20.6c-11.2-7.6-25.6-15.1-32.6-18.3
						c-9.4-4.3-19-3.9-31.1,2.3c-16.7,8.6-67.1,39.1-67.1,39.1s75.2,42.5,89.7,40.6c14.5-1.9,50.7-25.4,53.5-33.7
						C224.7,332.7,225.1,331.6,225.1,331.6z"/>
				</g>
			</g>
			<g id="XMLID_152_">
				<path id="XMLID_153_" class="st24" d="M161,365.7c10.8,9.8,22.1,1.4,40-10.2c20.2-13.1,24.2-23.9,24.2-23.9s0,8-1.5,11.8
					c-1.5,3.8-4.8,8-19.4,18.1c-14.6,10.1-25.1,15.1-34.9,16.9l-7.7-1.1"/>
			</g>
			<path id="XMLID_151_" class="st26" d="M201,355.5c20.2-13.1,24.2-23.9,24.2-23.9s0,8-1.5,11.8c-1.5,3.8-4.8,8-19.4,18.1
				c-14.6,10.1-25.1,15.1-34.9,16.9l-7.7-1.1l-0.6-11.7C171.8,375.5,183.1,367.1,201,355.5z"/>
			<g id="XMLID_149_">
				<path id="XMLID_150_" class="st24" d="M82.4,433.7l-5.5,12.8c0,0.1-0.1,0.2-0.1,0.3c0,0.1,0,0.2,0,0.2c0,0.3,0.4,0.6,0.7,0.9
					c0.8,0.5,2.1,0.6,3,0.1c0.3-0.2,0.5-0.4,0.6-0.6c0,0,0,0,0,0l0-0.2l5.1-12L82.4,433.7z"/>
			</g>
			<g id="XMLID_147_">
				<path id="XMLID_148_" class="st24" d="M221.8,434.2l4.7,12.5c0,0.1,0,0.2,0,0.3c0,0.1,0,0.1,0,0.2c0,0.3-0.4,0.6-0.7,0.8
					c-0.8,0.5-2.1,0.5-2.9,0c-0.3-0.2-0.5-0.4-0.6-0.6c0,0,0,0,0,0l0-0.2l-4.4-11.7L221.8,434.2z"/>
			</g>
			<g id="XMLID_145_">
				<path id="XMLID_146_" class="st24" d="M149.8,479.6l0,10.3c0,0.3,0.2,0.6,0.6,0.9c0.8,0.5,2.1,0.5,3,0c0.4-0.2,0.6-0.5,0.6-0.9
					v-10.3C152.6,478.9,151.2,478.9,149.8,479.6z"/>
			</g>
		</g>
		<g>
			<g>
				<g id="XMLID_125_">
					<g id="XMLID_128_">
						<g>
							<path id="XMLID_54_" class="st12" d="M108.7,287.8c4.3,5,43.3-6.2,53.6-7.6c16.7-2.3,30.2-3.9,35.9-2.2
								c5.7,1.8,8.1,4.7,9.8,11.4c2,8,3.1,12.1,3.1,12.1s-27.7,10.6-49.5,13.2C139.7,317.3,108.7,287.8,108.7,287.8z"/>
						</g>
					</g>
					<g id="XMLID_126_">
						<path id="XMLID_127_" class="st23" d="M101.4,295.1c-4.3,16.5-8.2,35.6,1.8,46.1c6.7,7.1,40.6,25.4,62.4,18.2
							c21.5-7.1,66.1-40.2,70.5-43.5c4.5-3.3,8.5-5.6,8.1-7c-6-19.9-14.8-21.5-31.1-17.9c-19.9,4.4-63.6,22.2-63.6,22.2L101.4,295.1
							z"/>
					</g>
				</g>
			</g>
			<g>
				<g id="XMLID_122_">
					<g id="XMLID_123_">
						<polygon id="XMLID_124_" class="st46" points="200.3,189.2 185.3,206.2 161,194.7 178,171.2 						"/>
					</g>
				</g>
				<g id="XMLID_117_">
					<g id="XMLID_120_">
						<path id="XMLID_121_" class="st49" d="M219,157c0,0,6.1,8.9,5.5,9.8c-0.7,0.9-5,1.8-5,1.8L219,157z"/>
					</g>
					<circle class="st50" cx="218.9" cy="155.5" r="6.7"/>
					<g id="XMLID_118_">
						<path id="XMLID_119_" class="st46" d="M201.9,132.4c12.1,2.3,15.7,7.5,17.2,26.5c1.6,19.9-0.3,26.3-2.8,29
							c-1.7,1.9-11.6,2.4-16.6,1.2c-6.2-1.6-20.4-6.2-27.2-16.1c-8-11.6-10.4-27.6-2.3-34.4C181.7,129.1,197,131.5,201.9,132.4z"/>
					</g>
					<path class="st49" d="M200.3,189.2c5.2,1.2,13.1,0.5,15.5-0.9c-0.2,0.1-3.9,1-8.7-0.3c-5-1.4-8-3.5-8-3.5L200.3,189.2z"/>
				</g>
				<g id="XMLID_110_">
					<g id="XMLID_114_">
						<g id="XMLID_115_">
							<path id="XMLID_116_" class="st29" d="M221.4,140.2C221.4,140.2,221.3,140.2,221.4,140.2c-3.4,2.3-7.5,3.3-11.6,3.9
								c0.3,3.2-0.7,6.4-1.7,9.5c-0.7,2.1-3.2,8.9-5.9,5.2c-2-2.7-3.8-5.1-7.6-4.4c-6.2,1.1-6.9,9.1-2.8,13.8
								c4.1,4.8,7.7,2.8,7.7,2.8s0.6,8.6-4,14.7c0,0-6.8,4.2-16.3,1c-6-2-14.6-9.5-17.8-15.4c-8.8-16.2-8.8-31.8,1.8-36.6
								c1-7.8,7-11.4,13.9-13.2c9.6-2.4,19.6,3.6,28.8-0.4c2-0.8,3.8-2,5.8-2.7c1.1-0.4,2.5-0.6,3.5,0c0.9,0.6,1.2,1.6,1.5,2.6
								c0.4,1.8,0.6,3.9-0.4,5.5c1.4-0.7,2.8-1.4,4.4-1.6c1.5-0.2,3.2,0,4.4,1c1.1,0.9,1.6,2.4,1.8,3.8
								C227.2,133.9,224.7,137.9,221.4,140.2z"/>
						</g>
					</g>
					<g id="XMLID_111_">
						<g id="XMLID_112_">
							<path id="XMLID_113_" class="st29" d="M163.1,137.4l-7.3-4.1c1.1-2,3.7-2.7,5.7-1.6C163.5,132.8,164.2,135.3,163.1,137.4z"/>
						</g>
					</g>
				</g>
				<line class="st51" x1="202.1" y1="158.8" x2="225.5" y2="154.5"/>
			</g>
			<path class="st46" d="M251,199.1c-0.6-1.1-2-1.3-3.2-1.7c-2.1-0.7-3.8-2.5-5.9-3.4c-2.3-1.1-5-1.1-7.4-0.5
				c-0.8,0.2-1.7,0.5-2.5,0.8c-1.5,0.6-3,1.4-4.4,2.3c-5.9,3.5-10.4,11.4-16.2,15.1c-2.2,1.4-4.2,2.6-6.2,3.8l13.9,12.4
				c2.9-2.3,5.6-4.5,6.9-5.2c3.4-2,6.9-2.1,10.7-2.6c2.7-0.4,5.3-1.2,7.8-2c0.9-0.3,1.9-0.6,2.3-1.5c0.5-1.1-0.4-2.4-1.5-2.9
				c-1.2-0.5-2.8-0.4-4.1-0.6c-1-0.2-3.7,0.4-4.3-0.6c-0.3-0.5,0.1-1.2,0.5-1.7c2.4-3,5.5-6.2,9.3-7.1c1.2-0.3,2.4-0.6,3.4-1.3
				C251.1,201.6,251.6,200.2,251,199.1z"/>
			<path class="st24" d="M167.9,185.3c-14.8-8.1-28.2-2.9-33.1,7.5c-4.4,9.4-13.6,45.7-13.6,45.7
				C125.6,246.7,167.9,185.3,167.9,185.3z"/>
			<g>
				<path class="st24" d="M165.6,188.2l2.2-2.9c-16.7-7.9-31.6,2.5-44.7,22.9c-14.2,22-21.6,53.7-21.7,87.1c0,0,2.8,15,21.8,22.5
					c20.1,8,48.2,4.6,56.9-16.3c0,0,0.2-20.8,6.5-31.1c4.1-6.6,13.7-21.4,20.8-32c6.2-9.2,11-30.2-1.9-37.8
					c-3.8-2.2-5.4-2.9-10.5-5.4C183.2,199.2,164.1,192.9,165.6,188.2z"/>
				<path class="st52" d="M165.7,188.3l2.2-3c-16.7-7.9-31.6,2.5-44.7,22.9c-14.2,22-21.6,53.7-21.7,87.1c0,0,2.8,15,21.8,22.5
					c20.1,8,48.2,4.6,56.9-16.3c0,0,0.2-20.8,6.5-31.1c4.1-6.6,13.7-21.4,20.8-32c6.2-9.2,11-30.2-1.9-37.8
					c-3.8-2.2-5.4-2.9-10.5-5.4C183.2,199.2,164.2,192.9,165.7,188.3z"/>
				<path class="st53" d="M212.8,225.1c0.9-4,1.1-8.2,0.5-12.1c0,0,0,0,0,0c-3,7.1-7.3,13.6-12.6,19.2c-6.8,7.1-15.2,12.7-21.5,20.3
					c-6.7,8-11.5,17.7-17,26.5c-2.2,3.5-5.3,10.3-9.5,10.6c-5.1,0.3-9.9-5.9-12.7-10.1c-4.4-6.8-8.2-15.3-13.7-21.3
					c-4.8-5.2-12.2-11.9-18.7-8.9h0c-0.5,1.7-0.9,3.5-1.4,5.3c-0.4,1.8-0.8,3.6-1.2,5.4c0,0.1,0,0.1,0,0.2c-0.4,1.8-0.7,3.6-1,5.5
					c0,0.1,0,0.2,0,0.3c-0.3,1.8-0.6,3.6-0.8,5.4c-1.1,7.8-1.6,15.8-1.7,23.9c0,0,2.8,15,21.8,22.5c20.1,8,48.2,4.6,56.9-16.3
					c0,0,0.2-20.8,6.5-31.1c0.6-1,1.4-2.3,2.3-3.7c0,0,0,0,0,0c0-0.1,0.1-0.2,0.1-0.2c0.7-1.1,1.5-2.4,2.4-3.7
					c0.1-0.1,0.1-0.2,0.2-0.2c0,0,0-0.1,0.1-0.1c1.8-2.8,3.8-6,5.9-9.2c0.3-0.5,0.6-1,1-1.5c2-3.1,4.1-6.2,6.1-9.2c0,0,0,0,0,0
					c0.7-1,1.3-2,2-2.9c0.3-0.4,0.5-0.8,0.8-1.2c0,0,0,0,0,0c0.2-0.3,0.4-0.7,0.7-1c0.1-0.1,0.1-0.2,0.2-0.3
					c0.2-0.3,0.3-0.5,0.5-0.8c0.1-0.1,0.1-0.2,0.2-0.4c0.2-0.3,0.3-0.6,0.5-1c0-0.1,0.1-0.2,0.1-0.3c0.2-0.4,0.4-0.9,0.6-1.3
					c0,0,0,0,0-0.1c0,0,0-0.1,0-0.1c0.2-0.4,0.4-0.8,0.5-1.3c0-0.1,0.1-0.2,0.1-0.3c0.2-0.4,0.3-0.8,0.5-1.2c0,0,0-0.1,0-0.1
					c0,0,0-0.1,0-0.1c0.3-0.8,0.5-1.6,0.7-2.4c0,0,0,0,0,0C212.4,226.9,212.6,226.1,212.8,225.1
					C212.8,225.2,212.8,225.2,212.8,225.1C212.8,225.2,212.8,225.2,212.8,225.1z"/>
			</g>
			<g>
				<path class="st46" d="M290.2,245.4c-1,1.3-2.2,2.5-3.5,3.6c-5.1,4.6-11.1,6.8-18,11.3c-5.6,3.6-14.2,8.9-21.5,13.5
					c-8.2,5.1-18,9.2-23.4,10.8c-6.8,2-10.5,2.1-14.5-8.8c-2-5.3-3.5-10.8-5.2-16.2c-2.5-8-5-16.1-7.4-24.2c0,0-9-22.2,11.1-33.3
					c8.8,5,12.1,7,14.8,17.5c3.3,12.5,8.6,37.3,8.6,37.3c7.1-2.5,14-5.5,20.8-8.8c2.6-1.3,5.7-2.1,7.5-4.4c1.2-1.5,2.2-3.3,3.2-5
					c0.9-1.5,1.5-3.2,2.4-4.7c1.8-2.7,4.3-5,6.6-7.3c0.5-0.4,1-0.9,1.6-0.9c0.7,0,1.3,0.4,1.6,1c0.7,1.3,0.1,2.6-0.3,3.9
					c-0.4,1.5-0.9,3-1.3,4.5c5.1-3,9.5-7,12.8-12c0.3-0.5,0.6-0.9,1-1.3c0.4-0.4,1-0.6,1.5-0.5c1.3,0.2,2.7,2.3,2.7,3.6
					c0.1,1.3-0.2,2.6,0.1,3.8c0.3,1.2,1.1,2.1,1.5,3.3c0.4,1.1,0.6,2.4,0.8,3.6c0.3,2.7-0.7,5.3-2,7.6
					C291.2,244,290.7,244.7,290.2,245.4z"/>
				<path class="st24" d="M206.5,201.3c7.7,3.1,13.2,6.6,16.7,18.3c3.5,11.8,7.3,30.4,7.3,30.4s0.1,3.9-9.2,9.4
					c-9.3,5.5-18,2.4-18,2.4l-7-22.6C196.2,239.3,183.8,209.1,206.5,201.3z"/>
			</g>
		</g>
		<g id="XMLID_105_">
			<path id="XMLID_109_" class="st24" d="M161.6,377.4c-6.2-0.3-11-4.8-25.6-10.9c-27-11.3-47.3-20.3-55-34.4
				c-7.7-14.1-13.2-55-11.3-72.7c0.3-2.3,0.7-4.3,1.3-5.9l-1.9-0.3l4.9-4.2l0,0c5-4.1,13.3-0.4,19.4,2.9c17.7,9.6,31.5,19,42.4,52.7
				c8.2,25.4,13.6,48.6,25,60.9"/>
			<path id="XMLID_108_" class="st54" d="M71.1,253.6l-1.9-0.3l4.9-4.2l0,0c5-4.1,13.3-0.4,19.4,2.9c17.7,9.6,31.5,19,42.4,52.7
				c8.2,25.4,13.6,48.6,25,60.9l0.6,11.7c-6.2-0.3-11-4.8-25.6-10.9c-27-11.3-47.3-20.3-55-34.4c-7.7-14.1-13.2-55-11.3-72.7
				C70.1,257.1,70.5,255.2,71.1,253.6z"/>
			<g id="XMLID_106_">
				<path id="XMLID_107_" class="st24" d="M88.5,256.4c17.7,9.6,31.5,19,42.4,52.7c10.9,33.8,16.9,63.6,38.4,69.4
					c0,0-9.7,3.9-39.6-8.8c-9.5-4-21-11.3-28.6-15.6c-14.8-8.3-23.8-15.1-25.2-17.7c-7.8-14.1-13.2-55-11.3-72.7
					C66.6,246.1,79.6,251.6,88.5,256.4z"/>
			</g>
		</g>
	</g>
</g>
</svg>
